<?xml version="1.0" standalone="no"?>
<!DOCTYPE svg PUBLIC "-//W3C//DTD SVG 20010904//EN"
 "http://www.w3.org/TR/2001/REC-SVG-20010904/DTD/svg10.dtd">
<svg version="1.0" xmlns="http://www.w3.org/2000/svg"
 width="552.000000pt" height="160.000000pt" viewBox="0 0 552.000000 160.000000"
 preserveAspectRatio="xMidYMid meet">

<g transform="translate(0.000000,160.000000) scale(0.100000,-0.100000)"
fill="#000000" stroke="none">
<path d="M3062 1133 c-34 -7 -59 -55 -81 -158 -28 -130 -30 -148 -19 -168 15
-29 35 -4 48 61 27 133 52 211 71 217 21 7 74 -1 139 -20 25 -7 79 -23 120
-35 109 -31 105 -29 93 -41 -7 -7 -50 1 -138 26 -192 55 -221 45 -254 -90 -28
-118 -32 -152 -17 -165 18 -14 32 4 40 55 13 75 38 170 49 183 12 15 76 10
106 -8 12 -7 5 -9 -25 -10 -56 0 -70 -15 -88 -90 -27 -115 -29 -147 -12 -153
17 -7 24 14 46 128 6 33 18 65 26 71 21 17 57 5 51 -16 -9 -35 7 -44 56 -31
56 14 77 14 77 1 0 -5 -8 -10 -18 -10 -21 0 -42 -18 -42 -37 0 -17 33 -16 94
2 65 20 105 18 49 -2 -40 -13 -55 -34 -35 -47 5 -3 39 5 77 16 67 21 71 21
135 5 80 -21 80 -21 80 2 0 12 -11 22 -32 29 -29 9 -30 10 -8 11 14 0 43 -6
65 -14 50 -18 71 -19 78 -1 6 16 -11 36 -32 36 -11 0 -12 3 -4 11 7 7 22 8 49
0 40 -11 64 -2 64 25 0 15 38 28 66 22 19 -3 32 -40 54 -150 8 -38 16 -58 26
-58 19 0 18 52 -2 142 -19 83 -40 108 -91 108 -28 0 -34 3 -23 10 27 17 98 12
109 -8 8 -15 33 -108 55 -204 4 -17 13 -28 23 -28 14 0 15 9 10 68 -7 79 -41
194 -62 212 -26 21 -114 14 -234 -19 -98 -27 -157 -34 -139 -15 7 6 249 74
307 85 75 15 86 8 109 -79 11 -42 27 -106 34 -141 11 -58 29 -84 45 -67 17 17
-17 222 -48 290 -29 63 -99 64 -304 6 -278 -78 -236 -74 -377 -34 -316 91
-305 89 -366 77z m211 -160 c-7 -2 -19 -2 -25 0 -7 3 -2 5 12 5 14 0 19 -2 13
-5z m594 1 c-3 -3 -12 -4 -19 -1 -8 3 -5 6 6 6 11 1 17 -2 13 -5z m-296 -27
c-5 -5 -18 -7 -28 -3 -14 6 -15 9 -4 16 19 11 46 1 32 -13z m106 -33 c-3 -3
-12 -4 -19 -1 -8 3 -5 6 6 6 11 1 17 -2 13 -5z"/>
<path d="M435 1102 c-64 -21 -75 -47 -75 -181 0 -100 2 -112 23 -136 25 -29
77 -45 152 -45 112 0 175 36 178 101 l2 34 -57 3 c-53 3 -57 1 -70 -25 -15
-31 -53 -41 -88 -23 -18 10 -20 20 -20 100 0 86 1 90 24 96 44 11 81 1 84 -23
3 -21 9 -23 68 -23 58 0 64 2 64 20 0 37 -30 81 -65 96 -35 14 -181 18 -220 6z"/>
<path d="M891 1028 c-93 -201 -121 -266 -121 -279 0 -6 25 -9 57 -7 54 3 57 5
76 41 l19 37 97 0 97 0 20 -37 c19 -36 22 -38 77 -41 42 -2 57 0 57 10 0 7
-35 90 -78 183 l-78 170 -92 3 -93 3 -38 -83z m159 -65 c11 -25 20 -49 20 -54
0 -5 -22 -9 -50 -9 -28 0 -50 5 -50 10 0 19 45 108 52 104 4 -3 17 -25 28 -51z"/>
<path d="M1330 925 l0 -186 58 3 57 3 5 97 5 97 55 -97 55 -97 52 -3 52 -3 58
100 c32 55 61 101 66 101 4 0 7 -45 7 -100 l0 -101 58 3 57 3 2 165 c1 91 0
173 -3 183 -5 14 -18 17 -88 17 l-82 0 -60 -105 c-32 -58 -61 -105 -65 -105
-3 0 -25 35 -49 78 -78 139 -70 132 -161 132 l-79 0 0 -185z"/>
<path d="M2009 1103 c0 -4 -1 -86 -3 -181 -2 -195 -5 -187 80 -180 l39 3 3 63
3 62 70 0 c146 0 199 32 199 121 0 40 -5 55 -29 81 l-29 33 -166 3 c-91 2
-166 0 -167 -5z m255 -79 c23 -9 20 -51 -4 -64 -11 -6 -44 -10 -73 -8 -46 3
-52 6 -55 26 -6 43 4 52 62 52 30 0 61 -3 70 -6z"/>
<path d="M2545 1095 c-51 -27 -55 -39 -55 -170 0 -115 1 -123 24 -144 32 -30
82 -41 191 -40 104 1 151 14 179 53 18 23 21 42 21 124 0 171 -23 192 -212
192 -86 0 -126 -4 -148 -15z m223 -77 c7 -7 12 -44 12 -95 0 -95 -7 -103 -85
-103 -79 0 -85 7 -85 110 0 61 4 90 13 93 25 11 133 7 145 -5z"/>
<path d="M4326 1063 c-13 -26 -35 -75 -49 -108 -14 -33 -39 -90 -56 -127 -17
-36 -31 -71 -31 -78 0 -7 19 -10 57 -8 55 3 58 5 77 41 l20 37 97 0 97 0 19
-37 c17 -37 20 -38 76 -41 42 -2 57 0 57 10 -1 7 -36 90 -78 183 l-77 170 -92
3 -92 3 -25 -48z m164 -154 c0 -5 -22 -9 -50 -9 -27 0 -50 4 -50 9 0 12 37 95
47 104 7 7 53 -84 53 -104z"/>
<path d="M4803 1095 c-49 -21 -63 -59 -63 -169 0 -52 5 -106 11 -119 17 -38
63 -58 147 -64 65 -5 80 -10 95 -30 13 -16 29 -23 54 -23 33 0 34 1 28 29 -5
25 -3 29 20 35 48 12 65 58 65 176 0 119 -9 142 -66 166 -45 19 -247 18 -291
-1z m224 -77 c11 -18 12 -163 2 -180 -7 -10 -14 -6 -32 15 -17 22 -29 28 -52
25 -26 -3 -30 -6 -27 -31 3 -26 1 -28 -20 -22 -12 4 -24 8 -25 9 -6 5 -5 174
1 184 10 17 142 16 153 0z"/>
<path d="M66 792 c-13 -21 -16 -84 -6 -123 9 -33 28 -60 80 -111 118 -116 356
-217 715 -303 313 -74 555 -111 1015 -155 462 -44 1278 -44 1750 0 490 46 774
89 1063 161 539 135 816 315 767 497 -6 23 -13 42 -15 42 -2 0 -24 -18 -50
-40 -178 -154 -563 -270 -1235 -370 -149 -22 -459 -51 -765 -71 -220 -14
-1040 -14 -1260 0 -564 37 -946 86 -1315 170 -329 74 -588 178 -698 280 -36
34 -38 35 -46 23z m1069 -422 c11 -9 13 -16 5 -24 -7 -7 -14 -6 -22 2 -7 7
-30 12 -53 12 -63 0 -84 -31 -45 -70 12 -12 33 -20 55 -20 38 0 48 17 13 22
-31 4 -35 28 -5 28 37 0 57 -10 57 -28 0 -12 3 -13 12 -4 7 7 30 13 53 13 l40
1 -42 11 c-54 13 -55 27 -2 27 65 0 79 -13 79 -70 l0 -50 -48 0 c-27 0 -57 6
-67 14 -12 8 -32 12 -52 9 -108 -18 -194 66 -132 128 18 18 30 21 79 17 32 -2
66 -10 75 -18z m3293 -7 c-3 -36 2 -63 12 -63 6 0 10 9 10 20 0 21 45 50 77
50 32 0 63 -29 63 -59 0 -65 -111 -95 -138 -38 l-11 22 0 -22 c-1 -31 -13 -37
-98 -49 -33 -5 -45 -2 -62 15 -27 27 -26 46 4 76 19 19 35 25 70 25 42 0 46 2
40 20 -5 16 -2 20 14 20 14 0 20 -6 19 -17z m-180 -75 c2 -42 0 -68 -8 -73 -6
-4 -13 -5 -16 -2 -7 7 -12 136 -6 142 16 16 27 -9 30 -67z m-2740 10 c6 -6 12
-32 12 -58 l0 -48 -57 3 c-40 2 -61 8 -69 20 -21 28 0 55 42 55 59 0 29 17
-33 19 -62 1 -73 -6 -73 -52 0 -52 -25 -24 -28 33 l-3 52 98 -7 c54 -4 104
-12 111 -17z m2692 12 c0 -22 -51 -110 -64 -110 -7 0 -26 18 -41 40 -41 59
-85 50 -85 -18 0 -26 -4 -33 -17 -30 -14 2 -19 15 -21 54 l-3 51 58 7 c57 7
59 6 85 -25 l27 -32 17 37 c16 33 44 50 44 26z m-2464 -15 c4 -8 19 -15 35
-15 21 0 27 4 23 15 -4 10 0 15 15 15 12 0 21 -4 21 -10 0 -5 -5 -10 -10 -10
-7 0 -7 -6 -2 -17 9 -16 7 -73 -2 -98 -2 -7 -25 -9 -57 -5 l-54 5 -7 55 c-4
30 -5 61 -3 68 6 17 34 15 41 -3z m-75 -16 c14 -14 19 -28 15 -42 -3 -12 -6
-30 -6 -39 0 -10 -6 -18 -14 -18 -10 0 -16 14 -18 43 -3 37 -6 42 -28 42 -22
0 -25 -5 -28 -37 -3 -30 -7 -38 -23 -38 -16 0 -19 7 -19 48 0 27 3 52 7 55 3
4 26 7 50 7 30 0 49 -6 64 -21z m2280 3 c30 -25 20 -52 -20 -52 -38 0 -62 -10
-55 -22 3 -5 25 -6 50 -2 30 4 44 3 44 -5 0 -22 -52 -33 -97 -21 -36 8 -47 8
-67 -6 -28 -17 -87 -15 -94 4 -2 8 8 12 32 12 20 0 36 5 36 10 0 6 -9 10 -19
10 -32 0 -51 11 -51 29 0 28 21 41 67 41 33 0 43 -4 43 -16 0 -12 -7 -14 -29
-9 -17 3 -32 2 -36 -4 -3 -6 2 -11 12 -11 10 0 27 -3 38 -6 14 -3 23 2 30 18
10 24 48 48 76 48 9 0 27 -8 40 -18z m-2018 -12 c46 0 48 -18 7 -49 -17 -12
-28 -26 -25 -32 11 -16 42 -10 56 12 9 13 27 22 47 24 49 3 51 15 3 15 -30 0
-41 4 -39 13 6 16 57 21 91 8 24 -10 27 -15 27 -62 l0 -51 -122 7 c-68 3 -127
11 -133 16 -7 7 1 19 23 37 39 32 40 42 7 42 -16 0 -25 6 -25 16 0 12 6 15 23
10 12 -3 39 -6 60 -6z m1401 -5 c5 -13 20 -14 88 -10 46 3 100 8 121 12 45 6
77 -16 77 -55 0 -37 -27 -62 -67 -62 -50 0 -73 16 -73 50 0 23 -5 30 -19 30
-25 0 -45 -25 -38 -50 6 -25 -7 -33 -59 -38 -27 -2 -47 2 -56 11 -12 13 -17
12 -36 -3 -29 -24 -195 -26 -229 -4 -29 18 -30 57 -2 85 17 17 29 20 62 15 50
-7 57 -7 127 0 31 4 58 12 63 20 11 19 33 18 41 -1z m-1056 -15 c24 1 50 -4
58 -11 19 -15 19 -95 0 -102 -17 -7 -26 13 -26 53 0 35 -13 45 -40 30 -14 -8
-20 -21 -20 -45 0 -24 -5 -35 -15 -35 -10 0 -15 10 -15 33 0 41 -12 60 -36 55
-14 -2 -20 -14 -24 -42 -3 -22 -11 -41 -17 -44 -7 -2 -13 0 -14 5 0 4 -2 28
-5 51 -2 24 -2 48 1 53 3 4 29 6 58 4 29 -3 72 -5 95 -5z m205 -15 c14 -13 19
-13 44 0 33 18 57 19 84 4 30 -15 13 -28 -29 -22 -25 4 -34 2 -27 -5 6 -6 21
-12 34 -14 33 -4 49 -31 31 -53 -17 -20 -101 -17 -108 4 -4 11 3 12 30 7 48
-9 56 5 11 20 -39 14 -53 11 -53 -11 0 -34 -79 -47 -118 -19 -26 18 -29 60 -5
86 20 22 85 24 106 3z m369 -45 c8 -47 4 -60 -18 -60 -9 0 -14 11 -14 34 0 66
-56 73 -62 8 -2 -26 -8 -38 -20 -40 -15 -3 -18 5 -18 52 l0 55 43 3 c66 5 81
-3 89 -52z m58 11 c0 -25 5 -41 15 -45 29 -11 45 5 45 45 0 33 3 39 21 39 18
0 20 -5 17 -52 l-3 -53 -55 -3 c-62 -4 -80 10 -80 63 0 35 6 45 27 45 8 0 13
-13 13 -39z"/>
<path d="M1190 265 c0 -9 9 -15 25 -15 16 0 25 6 25 15 0 9 -9 15 -25 15 -16
0 -25 -6 -25 -15z"/>
<path d="M4485 309 c-9 -28 8 -43 39 -35 19 5 26 13 26 31 0 21 -5 25 -29 25
-21 0 -32 -6 -36 -21z"/>
<path d="M4310 295 c-16 -20 -6 -45 19 -45 38 0 70 18 68 40 -1 16 -8 20 -38
20 -20 0 -42 -7 -49 -15z"/>
<path d="M1430 241 c0 -6 5 -13 10 -16 14 -9 52 4 45 16 -8 12 -55 12 -55 0z"/>
<path d="M1732 233 c4 -37 42 -45 52 -11 9 36 8 38 -25 38 -27 0 -30 -3 -27
-27z"/>
<path d="M3875 260 c-4 -6 5 -10 20 -10 15 0 24 4 20 10 -3 6 -12 10 -20 10
-8 0 -17 -4 -20 -10z"/>
<path d="M2000 190 c0 -5 14 -10 30 -10 17 0 30 5 30 10 0 6 -13 10 -30 10
-16 0 -30 -4 -30 -10z"/>
<path d="M3512 223 c-13 -26 -4 -43 23 -43 32 0 52 25 35 45 -17 20 -47 19
-58 -2z"/>
<path d="M3204 218 c-3 -4 3 -8 13 -8 10 0 31 -7 46 -15 27 -14 28 -13 25 6
-2 17 -11 22 -41 24 -21 1 -40 -2 -43 -7z"/>
<path d="M3324 215 c-10 -24 2 -42 31 -47 23 -5 26 -3 21 16 -3 11 -6 27 -6
34 0 17 -39 15 -46 -3z"/>
<path d="M3060 211 c0 -4 11 -6 25 -3 14 2 25 6 25 8 0 2 -11 4 -25 4 -14 0
-25 -4 -25 -9z"/>
<path d="M3139 189 c-7 -5 -29 -9 -46 -9 -18 0 -33 -4 -33 -10 0 -5 36 -9 85
-8 47 1 85 5 85 10 0 4 -9 8 -21 8 -11 0 -28 4 -38 9 -10 6 -23 6 -32 0z"/>
<path d="M2390 206 c-18 -22 5 -48 39 -44 20 2 26 9 26 28 0 19 -6 26 -26 28
-14 2 -31 -4 -39 -12z"/>
</g>
</svg>
