<?xml version="1.0" standalone="no"?>
<!DOCTYPE svg PUBLIC "-//W3C//DTD SVG 20010904//EN" "http://www.w3.org/TR/2001/REC-SVG-20010904/DTD/svg10.dtd">
<svg xmlns="http://www.w3.org/2000/svg" version="1.0" width="500.000000pt" height="200.000000pt" viewBox="0 0 500.000000 200.000000" preserveAspectRatio="xMidYMid meet">
<metadata>
Created by potrace 1.16, written by Peter Selinger 2001-2019
<meta name="Producer" content="Online-Convert"/></metadata>
<g transform="translate(0.000000,200.000000) scale(0.100000,-0.100000)" fill="#000000" stroke="none">
<path d="M520 1399 c-168 -44 -270 -146 -314 -317 -31 -118 10 -257 105 -357 61 -65 147 -111 234 -125 73 -12 485 -12 485 0 0 5 -46 96 -102 202 -55 106 -107 208 -115 226 -7 18 -20 35 -29 39 -19 7 -31 -9 -89 -119 -70 -133 -92 -129 -174 29 -27 51 -52 88 -61 88 -9 0 -41 -50 -80 -127 -36 -70 -68 -130 -72 -133 -3 -4 -11 2 -17 13 -9 17 5 53 88 220 56 112 107 202 117 206 30 12 62 -22 111 -116 28 -55 55 -94 65 -96 13 -3 30 22 67 95 85 170 100 168 202 -28 100 -192 101 -194 96 -89 -7 116 -34 185 -104 261 -68 73 -115 101 -213 128 -90 25 -104 25 -200 0z"/>
<path d="M1122 1004 l3 -188 35 0 35 1 -3 131 c-2 73 0 132 5 132 5 0 33 -58 62 -129 l54 -129 44 -4 c25 -2 48 1 53 7 4 5 32 66 61 135 l54 124 3 -131 3 -130 61 -7 c94 -9 94 -9 122 39 l27 45 104 0 104 0 22 -40 23 -40 103 0 103 0 0 69 c0 75 5 81 75 81 43 0 55 -16 55 -71 0 -70 14 -79 121 -79 l89 0 0 29 c0 29 -2 30 -52 33 l-53 3 0 40 c0 35 3 40 25 43 49 7 60 28 60 112 0 113 6 110 -233 110 l-196 0 -3 -151 -3 -152 -90 152 -89 151 -48 0 c-55 0 -52 4 -154 -185 l-59 -110 -3 148 -3 148 -76 -3 -76 -3 -51 -117 c-27 -65 -53 -118 -56 -118 -3 0 -28 53 -56 118 l-50 117 -77 3 -77 3 2 -187z m1284 101 c3 -14 3 -36 0 -50 -6 -25 -8 -25 -106 -25 l-100 0 0 50 0 50 100 0 c98 0 100 0 106 -25z"/>
<path d="M2570 1017 c0 -121 4 -177 12 -185 8 -8 67 -12 198 -12 167 0 189 2 203 18 13 14 17 45 19 154 l3 136 73 -102 c71 -98 73 -102 70 -153 l-3 -51 53 -4 c30 -2 56 -1 58 1 2 2 4 28 4 58 0 51 3 58 90 177 50 69 90 127 90 131 0 3 -21 5 -47 3 -47 -3 -48 -4 -106 -85 -32 -46 -63 -81 -67 -78 -5 3 -34 41 -65 85 l-56 80 -90 0 -89 0 0 -143 c0 -98 -4 -147 -12 -155 -15 -15 -214 -17 -223 -2 -4 6 -9 75 -12 155 l-6 145 -49 0 -48 0 0 -173z"/>
<path d="M3496 1153 c-36 -58 -176 -321 -176 -333 0 -5 18 -10 39 -10 36 0 42 4 63 43 l23 42 105 0 104 0 24 -35 c23 -35 24 -35 108 -40 47 -3 88 -3 90 -1 2 2 4 63 4 135 0 78 4 126 9 120 5 -5 32 -63 60 -129 l50 -120 49 -3 48 -3 53 123 c29 68 57 127 62 133 5 5 9 -46 9 -123 l0 -132 83 0 82 0 20 38 20 37 105 3 106 3 23 -41 22 -40 65 0 c36 0 64 4 62 8 -1 5 -50 88 -108 185 l-104 177 -52 0 -51 0 -79 -147 -79 -148 -6 100 c-4 55 -7 121 -8 148 l-1 47 -72 0 -73 0 -49 -116 c-28 -63 -53 -117 -57 -119 -4 -3 -29 48 -57 113 l-51 117 -75 3 -76 3 0 -156 c0 -85 -3 -155 -7 -155 -5 1 -48 70 -98 155 l-90 155 -47 0 c-44 0 -49 -3 -72 -37z"/>
</g>
</svg>
