<?xml version="1.0" standalone="no"?>
<!DOCTYPE svg PUBLIC "-//W3C//DTD SVG 20010904//EN" "http://www.w3.org/TR/2001/REC-SVG-20010904/DTD/svg10.dtd">
<svg xmlns="http://www.w3.org/2000/svg" version="1.0" width="695.000000pt" height="344.000000pt" viewBox="0 0 695.000000 344.000000" preserveAspectRatio="xMidYMid meet">
<metadata>
Created by potrace 1.16, written by Peter Selinger 2001-2019
<meta name="Producer" content="Online-Convert"/></metadata>
<g transform="translate(0.000000,344.000000) scale(0.100000,-0.100000)" fill="#000000" stroke="none">
<path d="M44 3415 c-14 -22 -16 -47 -11 -172 3 -107 8 -148 18 -154 11 -7 12 -12 1 -29 -6 -11 -12 -54 -13 -97 0 -53 -3 -72 -9 -58 -7 17 -9 14 -9 -13 -1 -20 3 -31 9 -27 5 3 10 -3 10 -15 0 -12 4 -18 10 -15 5 3 10 -1 10 -10 0 -9 -4 -14 -9 -10 -14 8 -16 -16 -13 -135 l3 -107 57 -6 c31 -3 61 -2 68 3 16 14 26 -1 12 -17 -9 -11 -9 -16 2 -23 21 -13 9 -20 -49 -27 -28 -3 -51 -11 -52 -17 -1 -6 -4 0 -8 14 -5 14 -7 -11 -5 -60 1 -47 -1 -96 -4 -110 -6 -25 -6 -25 -13 5 -6 29 -7 29 -8 -7 0 -21 4 -38 9 -38 6 0 10 -15 9 -32 -1 -29 -2 -30 -8 -9 -5 19 -9 12 -23 -38 -9 -33 -12 -59 -8 -56 5 3 6 -102 3 -232 -8 -384 -9 -643 0 -643 4 0 7 -11 7 -25 0 -14 -5 -25 -10 -25 -6 0 -9 -20 -8 -45 0 -25 5 -45 9 -45 4 0 5 -16 2 -35 -4 -23 -2 -35 6 -35 6 0 11 -5 11 -11 0 -5 -4 -7 -10 -4 -13 8 -13 -20 -1 -62 6 -21 6 -35 0 -39 -6 -4 -6 -10 -1 -17 9 -11 9 -41 2 -72 -1 -5 -6 1 -10 15 -7 20 -8 17 -8 -20 0 -25 2 -39 5 -32 2 6 9 10 14 6 14 -8 11 -24 -6 -24 -22 0 -7 -28 18 -33 22 -4 22 -4 0 -6 -27 -1 -31 -21 -5 -22 11 -1 9 -4 -8 -9 -14 -4 -19 -8 -11 -9 11 -1 11 -4 1 -16 -10 -12 -9 -16 3 -21 16 -6 17 -50 2 -74 -3 -5 -1 -10 5 -10 7 0 9 -19 7 -52 -2 -34 -8 -52 -15 -50 -7 1 -12 -2 -12 -8 0 -5 4 -10 10 -10 5 0 8 -6 5 -12 -2 -7 -6 -38 -9 -68 -5 -39 -3 -51 4 -40 8 12 10 10 10 -11 0 -14 6 -31 13 -38 10 -10 8 -11 -6 -5 -15 5 -16 3 -9 -17 5 -13 7 -30 4 -38 -3 -8 0 -11 7 -7 6 4 11 3 11 -3 0 -5 -5 -11 -11 -13 -13 -4 -15 -48 -5 -135 4 -41 3 -63 -4 -63 -5 0 -10 -4 -10 -10 0 -5 7 -10 16 -10 8 0 12 -4 9 -10 -9 -14 39 -12 53 2 9 9 12 9 12 0 0 -10 28 -12 110 -10 66 2 110 7 110 13 0 5 5 3 10 -5 8 -12 13 -13 29 -3 13 8 22 9 26 2 8 -12 136 -10 153 3 8 7 12 7 12 -1 0 -7 4 -10 8 -7 16 10 62 15 66 7 6 -9 120 -6 136 4 6 4 17 1 25 -5 8 -6 19 -8 26 -4 12 7 100 8 134 1 11 -3 41 -1 67 2 28 5 51 4 57 -2 7 -7 15 -6 24 1 8 7 17 9 21 5 11 -11 175 -13 182 -2 3 5 11 6 17 2 18 -12 87 -12 87 -1 0 6 6 5 15 -2 11 -9 22 -9 50 0 26 9 39 9 49 1 14 -12 456 -13 456 -1 0 9 52 7 69 -4 9 -6 17 -4 22 7 8 13 14 13 39 4 24 -9 33 -9 39 1 5 9 12 9 27 -3 36 -28 78 -15 79 24 0 8 6 16 12 18 9 3 11 -4 6 -28 -5 -25 -3 -30 7 -24 18 11 120 12 120 1 0 -5 7 -3 15 4 12 10 15 10 15 -1 1 -9 6 -7 16 6 12 16 16 17 23 6 6 -9 22 -12 50 -9 22 2 41 0 41 -4 0 -5 9 -3 19 4 15 9 26 9 44 1 13 -6 30 -8 37 -3 8 5 22 4 32 -1 12 -6 37 -6 69 -1 31 6 65 6 88 0 24 -6 57 -6 91 0 32 6 65 6 84 1 25 -7 34 -6 44 8 13 17 14 17 23 1 8 -14 22 -18 62 -16 l52 1 -45 7 -45 7 43 1 c35 2 42 5 42 22 0 27 28 26 32 -2 4 -28 48 -36 65 -11 7 9 13 11 13 5 0 -7 9 -12 20 -12 12 0 17 5 14 13 -6 16 33 35 59 29 26 -5 20 -22 -8 -22 -14 0 -25 -5 -25 -11 0 -7 9 -9 22 -6 14 4 29 0 40 -10 17 -15 18 -15 18 5 0 24 14 29 26 10 5 -7 15 -2 31 18 12 16 23 24 23 17 0 -6 9 -9 21 -6 17 5 20 12 17 47 -3 44 -19 52 -30 14 -3 -13 -6 -17 -7 -10 -1 6 -8 12 -17 12 -14 0 -14 -3 -4 -15 10 -12 10 -15 -3 -15 -9 0 -21 9 -27 20 -10 18 -8 20 18 20 22 0 31 6 35 21 4 15 11 20 23 15 9 -3 23 -1 30 5 11 9 13 4 10 -23 -2 -18 -7 -41 -11 -50 -5 -13 -3 -18 9 -18 9 0 16 5 16 11 0 5 5 7 10 4 6 -4 8 -11 5 -16 -4 -5 1 -9 9 -9 9 0 16 7 16 15 0 8 5 15 11 15 6 0 9 -7 5 -15 -3 -8 -1 -15 5 -15 7 0 9 -13 7 -32 -4 -26 -3 -28 7 -15 7 10 17 17 24 17 17 0 13 18 -6 29 -10 6 -14 11 -10 11 4 0 3 9 -3 20 -6 11 -14 19 -18 19 -27 -4 -42 3 -42 21 0 25 15 26 25 3 6 -17 7 -17 21 1 14 19 14 19 14 -2 0 -12 5 -22 10 -22 6 0 10 -9 10 -19 0 -11 4 -22 9 -26 11 -6 61 15 61 27 0 4 7 8 15 8 12 0 14 -7 9 -28 -8 -33 -14 -41 -14 -19 0 10 -4 17 -10 17 -13 0 -13 -47 -1 -54 5 -4 12 0 14 6 4 10 8 9 16 -2 10 -13 13 -13 22 2 5 10 19 18 31 18 14 0 18 5 14 15 -3 9 0 15 9 15 8 0 15 -5 15 -11 0 -21 26 -35 63 -35 24 0 37 5 37 14 0 7 5 10 10 7 7 -4 7 -13 0 -26 -10 -17 -8 -19 14 -15 14 3 28 0 31 -5 10 -15 35 -10 35 6 0 8 -7 15 -15 15 -18 0 -19 7 -3 24 10 10 16 7 35 -13 12 -14 23 -20 23 -13 0 21 23 39 42 34 10 -2 18 1 18 7 0 6 -8 11 -17 12 -15 0 -15 2 2 9 28 12 47 12 40 0 -8 -13 11 -13 35 0 13 7 21 7 25 0 3 -5 -3 -10 -14 -10 -12 0 -21 -4 -21 -10 0 -5 19 -10 43 -10 31 0 38 3 27 10 -14 9 -7 14 13 11 5 -1 5 18 2 42 l-7 44 38 6 c21 4 40 4 43 2 2 -3 -3 -5 -11 -5 -9 0 -18 -10 -21 -22 -3 -13 -9 -33 -12 -45 -5 -15 -3 -23 4 -23 6 0 11 9 11 20 0 34 17 22 25 -16 l6 -36 23 21 c12 11 30 21 39 21 14 0 16 4 7 19 -13 26 -2 31 40 21 19 -4 26 -8 15 -9 -27 -2 -44 -41 -32 -72 10 -25 11 -23 21 24 4 18 13 27 26 27 11 0 20 -4 20 -10 0 -5 19 -10 43 -9 l42 1 -34 9 c-31 10 -32 11 -15 24 11 8 25 15 32 15 6 0 12 9 12 21 0 17 -5 19 -29 16 -17 -3 -35 -8 -40 -12 -7 -3 -11 2 -11 14 0 12 6 22 13 22 6 1 -6 5 -27 8 -22 3 -42 12 -44 20 -4 11 2 12 24 7 54 -14 114 -18 114 -8 0 11 -127 32 -147 25 -6 -3 -14 -14 -16 -26 -2 -12 -4 -4 -3 19 1 39 2 40 26 34 25 -7 76 5 95 21 17 17 45 10 45 -11 0 -13 -7 -20 -19 -20 -11 0 -23 -4 -26 -10 -7 -12 48 -14 59 -2 4 4 20 7 34 7 21 0 26 5 26 25 0 21 -4 25 -27 23 -21 -1 -28 4 -33 22 -5 19 -15 25 -50 31 -26 4 -44 12 -44 19 0 22 38 28 62 11 32 -23 42 -20 55 14 12 31 33 41 33 15 0 -8 -4 -15 -10 -15 -5 0 -10 -9 -10 -19 0 -11 -5 -23 -10 -26 -13 -8 -13 -35 0 -35 6 0 10 9 10 20 0 13 7 20 19 20 11 0 22 4 25 9 3 4 17 6 31 3 19 -3 25 0 25 14 0 14 2 16 9 6 5 -9 17 -11 37 -6 34 8 44 20 44 53 0 20 -3 22 -12 13 -14 -14 -48 -16 -48 -4 0 5 11 15 25 22 17 9 25 21 24 39 l-1 26 -10 -27 c-9 -27 -28 -39 -28 -18 0 17 -18 11 -23 -7 -4 -14 -5 -13 -6 4 -1 16 -5 21 -17 16 -9 -3 -20 0 -25 8 -5 9 -3 16 8 20 14 5 13 8 -7 27 -26 24 -40 28 -40 12 0 -5 5 -10 10 -10 6 0 5 -8 -2 -19 -7 -11 -16 -17 -20 -14 -5 2 -15 -1 -23 -7 -12 -10 -15 -10 -15 1 0 8 -8 4 -19 -10 l-19 -24 -4 42 c-2 23 0 45 4 47 18 12 7 34 -18 34 -14 0 -23 -4 -20 -9 8 -13 -15 -27 -46 -29 -32 -2 -35 7 -11 30 38 36 46 49 34 61 -6 6 -11 7 -11 1 0 -5 -19 -10 -43 -10 -42 -2 -42 -2 14 13 49 12 58 19 62 41 3 15 1 34 -4 44 -16 30 -11 66 11 73 25 8 26 22 1 30 -10 3 -21 15 -24 25 -7 27 -41 25 -55 -2 -6 -13 -11 -17 -11 -10 -1 6 -8 12 -16 12 -11 0 -12 -6 -6 -23 5 -12 13 -22 20 -22 6 0 11 -3 11 -7 0 -5 0 -12 0 -18 0 -5 -3 -9 -7 -9 -23 4 -31 -3 -27 -23 4 -21 4 -22 -5 -3 -5 11 -8 36 -6 55 1 19 0 27 -2 17 -3 -10 -11 -21 -19 -24 -9 -3 -12 -13 -8 -27 8 -32 -18 -52 -40 -31 -9 9 -21 26 -27 37 -10 19 -12 18 -35 -14 -14 -19 -23 -41 -20 -52 3 -12 1 -15 -5 -9 -15 15 -69 3 -69 -16 0 -9 -5 -23 -11 -31 -8 -12 -9 -9 -5 12 5 21 1 30 -13 38 -26 13 -32 13 -30 -2 3 -26 -1 -38 -15 -38 -8 0 -16 -6 -19 -12 -2 -7 -8 -10 -12 -6 -4 4 -2 15 5 24 10 11 11 17 3 22 -15 10 7 82 24 82 7 0 13 8 13 19 0 12 9 20 25 23 17 4 25 1 25 -8 0 -8 -6 -11 -15 -8 -9 4 -15 0 -15 -10 0 -9 7 -16 15 -16 8 0 15 -9 15 -19 0 -11 5 -23 10 -26 6 -4 10 5 10 19 0 18 5 26 18 26 10 0 23 5 30 12 9 9 12 9 12 0 0 -7 7 -12 16 -12 13 0 14 3 4 15 -16 19 -5 49 15 41 18 -7 69 39 60 53 -4 7 8 11 32 10 21 0 31 -3 23 -6 -45 -15 -45 -15 -21 -24 18 -7 30 -5 50 8 44 30 55 31 74 6 22 -27 77 -30 77 -3 0 9 6 25 14 36 14 18 15 18 24 -6 6 -14 17 -32 26 -39 10 -8 16 -30 17 -55 0 -37 1 -39 10 -16 6 14 8 35 6 47 -3 15 0 20 10 16 8 -3 13 -21 13 -44 0 -26 4 -39 14 -39 17 0 10 79 -10 101 -8 8 -14 30 -14 47 0 18 -4 32 -9 32 -5 0 -11 9 -14 20 -3 13 0 20 9 20 8 0 14 -9 14 -19 0 -11 5 -23 11 -26 6 -4 14 -17 19 -29 8 -19 9 -19 9 7 1 15 -2 27 -7 27 -4 0 -12 10 -17 22 -12 27 -44 36 -56 16 -7 -10 -9 -8 -9 7 -1 17 -3 17 -12 -5 -6 -14 -10 -30 -9 -37 1 -6 -3 -14 -8 -17 -14 -9 -24 13 -13 27 5 7 6 21 1 32 -8 20 -8 19 -14 -2 -6 -18 -10 -20 -25 -11 -14 9 -22 9 -33 -1 -13 -10 -16 -9 -19 5 -4 21 -53 27 -69 8 -15 -18 -33 -18 -26 0 4 11 1 13 -10 9 -13 -5 -15 0 -11 25 4 31 -6 45 -15 20 -2 -7 -7 -10 -11 -7 -8 7 14 59 24 59 4 0 11 15 15 33 4 17 10 39 12 47 11 34 7 91 -6 99 -8 5 -12 18 -8 30 6 23 -17 30 -26 9 -4 -9 -8 -10 -14 -2 -4 6 -23 16 -40 22 -27 9 -36 8 -48 -5 -14 -14 -14 -17 2 -29 17 -14 16 -14 -7 -12 -17 2 -25 9 -24 21 1 9 -4 17 -12 17 -16 0 -19 26 -5 34 5 4 12 25 16 47 4 25 11 37 16 32 6 -6 6 -20 -1 -37 -5 -15 -10 -30 -10 -34 0 -4 35 -5 77 -4 58 3 80 8 89 20 16 22 29 9 16 -14 -8 -14 -20 -18 -56 -15 -26 1 -46 -2 -46 -8 0 -5 19 -11 42 -13 36 -3 43 -7 48 -28 l6 -25 7 25 c5 19 9 22 16 11 12 -19 18 -3 17 44 -1 37 -3 40 -36 47 -30 5 -27 6 15 5 39 -2 50 1 50 13 0 8 -9 15 -20 16 -38 2 -40 5 -15 19 19 10 27 10 33 2 6 -8 7 -7 4 3 -5 21 -64 26 -69 5 -2 -13 -6 -12 -21 5 -18 21 -18 22 2 15 25 -8 27 1 5 22 -11 12 -18 13 -23 5 -4 -7 -36 -13 -74 -15 -37 -1 -67 -6 -67 -12 0 -5 -4 -4 -9 4 -6 9 -19 12 -42 7 -19 -4 -44 -7 -56 -8 -12 -1 -19 -6 -17 -10 3 -5 10 -6 15 -3 5 4 9 -3 9 -15 0 -12 4 -19 10 -15 5 3 7 12 3 20 -3 8 -1 15 4 15 18 0 22 -12 10 -32 -9 -16 -9 -22 1 -25 17 -6 15 -20 -4 -27 -12 -4 -15 -2 -10 9 3 9 -3 19 -14 25 -16 9 -20 8 -20 -5 0 -8 5 -15 12 -15 9 0 9 -3 0 -12 -15 -15 -15 -51 0 -66 9 -9 8 -12 -5 -12 -9 0 -16 5 -14 11 1 6 -4 14 -12 17 -10 3 -12 0 -8 -12 4 -9 1 -16 -5 -16 -9 0 -9 -3 0 -12 18 -18 15 -31 -6 -25 -16 4 -21 -5 -32 -59 -7 -35 -17 -61 -22 -58 -5 3 -13 -8 -19 -25 -6 -17 -14 -29 -19 -26 -4 3 -10 -4 -13 -15 -3 -11 -1 -18 3 -15 11 7 5 -64 -6 -75 -5 -5 -40 -10 -77 -12 -49 -2 -66 -6 -62 -16 2 -7 -4 -12 -15 -12 -14 0 -20 -7 -20 -22 l0 -23 -18 22 c-9 12 -24 22 -32 23 -28 4 -41 0 -35 -10 3 -6 -4 -10 -17 -11 -13 -1 -38 -2 -55 -4 -33 -3 -45 9 -20 18 9 4 9 6 0 6 -6 1 -15 -3 -18 -9 -10 -15 -25 -12 -25 6 0 12 -9 15 -37 13 -55 -3 -63 -1 -57 16 7 17 34 21 34 5 0 -5 5 -10 12 -10 9 0 9 3 0 12 -15 15 -16 31 0 22 6 -4 8 -3 5 3 -4 6 -2 25 4 43 9 25 9 34 -1 40 -9 6 -7 13 8 28 l21 21 6 -20 c4 -11 9 -18 12 -16 2 3 0 15 -7 26 -7 15 -8 32 -1 56 6 21 6 35 0 35 -5 0 -9 -5 -9 -11 0 -5 -5 -7 -11 -3 -22 13 9 28 35 16 24 -11 24 -10 15 18 -6 16 -17 34 -24 40 -8 6 -11 18 -8 26 7 18 33 0 34 -25 0 -10 4 -6 10 9 6 14 8 39 6 55 -4 24 2 37 26 62 17 18 26 33 20 33 -6 0 -13 -6 -16 -12 -2 -7 -7 -10 -11 -6 -13 11 18 49 36 45 11 -3 15 0 11 9 -2 7 2 23 11 36 12 17 14 35 10 69 -4 27 -2 55 5 65 10 18 10 18 11 1 0 -10 7 -25 15 -33 13 -14 15 -13 15 11 0 15 -4 24 -10 20 -6 -3 -10 3 -10 14 0 13 5 19 14 15 17 -6 26 24 15 51 -4 11 -8 14 -8 7 -1 -7 -5 -11 -10 -8 -5 3 -11 -1 -15 -9 -8 -22 -26 -18 -26 5 0 28 -28 25 -56 -6 -15 -15 -24 -20 -24 -11 0 7 9 23 19 34 17 17 29 20 70 16 53 -4 73 12 24 20 l-28 4 28 2 c16 0 35 8 43 16 13 13 13 17 -2 40 -9 13 -14 32 -10 40 3 10 -1 15 -12 16 -9 0 -25 2 -34 4 -10 2 -18 -1 -18 -6 0 -13 -28 -11 -32 3 -3 7 -7 5 -11 -6 -4 -10 -3 -15 3 -11 6 3 10 -4 10 -16 0 -17 -3 -19 -14 -10 -11 9 -15 7 -20 -11 -3 -13 -5 -32 -5 -43 1 -16 2 -16 9 5 5 16 8 19 9 8 2 -33 -52 -113 -69 -103 -3 2 -7 -6 -7 -18 -1 -12 -5 -33 -9 -47 -6 -24 -7 -24 -15 -5 -5 13 -6 5 -2 -22 4 -31 1 -46 -11 -58 -22 -23 -20 -34 9 -45 14 -5 25 -12 25 -15 0 -4 -5 -3 -12 1 -8 5 -9 -2 -5 -24 4 -20 2 -32 -4 -32 -6 0 -7 4 -4 10 3 5 -1 10 -9 10 -8 0 -16 6 -19 13 -2 6 -2 1 0 -12 4 -21 2 -23 -11 -12 -13 11 -16 9 -21 -11 -3 -12 -7 -36 -8 -53 -2 -18 -8 -30 -16 -30 -18 0 -35 -55 -18 -55 7 -1 1 -10 -12 -20 -13 -11 -18 -20 -12 -20 7 0 9 -5 6 -10 -4 -6 -11 -7 -17 -4 -7 5 -9 -4 -6 -25 2 -17 1 -31 -3 -31 -4 0 -10 -8 -13 -17 -3 -10 -4 -6 -2 10 2 15 -1 27 -5 27 -10 0 -12 -14 -10 -43 1 -9 -5 -20 -13 -23 -29 -11 -17 -20 22 -16 33 3 35 2 20 -11 -10 -8 -15 -17 -11 -20 3 -4 -8 -12 -26 -18 -22 -8 -29 -15 -23 -23 5 -6 6 -20 1 -31 -6 -17 -8 -17 -8 -2 -1 9 -5 17 -11 17 -5 0 -7 -7 -4 -15 4 -8 1 -15 -5 -15 -6 0 -8 -7 -4 -16 4 -10 -1 -17 -16 -21 -11 -3 -21 -9 -21 -14 0 -5 -9 -9 -21 -9 -11 0 -17 -5 -14 -10 8 -13 -20 -24 -36 -15 -8 6 -7 10 2 16 10 6 3 9 -21 10 -19 1 -41 1 -48 0 -6 -1 -12 3 -12 8 0 6 33 12 73 14 71 3 71 3 -18 5 -49 1 -85 -2 -79 -6 9 -5 8 -11 -2 -20 -8 -7 -14 -8 -14 -2 0 5 -5 10 -11 10 -6 0 -9 -7 -5 -15 3 -8 0 -15 -5 -15 -6 0 -9 -9 -6 -20 3 -12 1 -18 -5 -14 -5 4 -7 19 -4 35 5 28 5 28 -34 25 -41 -4 -65 9 -33 17 14 4 13 5 -4 6 -13 1 -23 -6 -26 -16 -4 -17 -5 -17 -6 0 -1 12 -9 17 -29 17 -36 0 -45 9 -29 28 10 13 9 14 -2 7 -11 -6 -13 -4 -6 11 4 10 7 27 7 36 0 10 5 17 11 15 8 -1 12 15 12 46 1 27 5 51 10 55 15 11 65 112 56 112 -5 0 -6 11 -3 25 2 14 8 25 12 25 4 0 7 18 7 40 0 25 6 46 16 53 8 7 20 29 27 50 7 22 18 51 26 65 8 15 14 35 14 44 0 9 3 19 8 21 4 3 6 28 6 56 -2 51 3 60 23 40 7 -7 12 2 17 30 3 23 12 41 19 41 8 0 7 4 -3 10 -12 8 -13 12 -1 19 7 5 19 35 27 67 17 74 17 73 -3 69 -10 -2 -21 -4 -25 -4 -3 -1 -4 -9 -1 -19 4 -15 -1 -17 -37 -14 -33 3 -39 7 -29 18 10 12 2 14 -45 14 -36 0 -55 -4 -51 -10 3 -5 2 -10 -4 -10 -5 0 -12 6 -14 13 -3 7 -6 4 -6 -7 -1 -12 -6 -16 -17 -12 -9 3 -23 6 -32 7 -14 0 -13 2 3 9 16 7 12 9 -18 9 -28 1 -44 -5 -58 -21 l-20 -23 6 23 c4 13 2 22 -4 22 -6 0 -11 -6 -11 -14 0 -8 -6 -16 -12 -19 -10 -4 -10 -7 0 -18 6 -7 12 -20 12 -29 0 -8 -8 1 -17 20 -20 43 -22 45 -28 38 -3 -3 -1 -18 4 -34 8 -23 8 -25 -1 -12 -11 15 -13 14 -25 -9 -17 -34 -17 -73 1 -73 8 0 17 -4 21 -9 3 -6 -6 -6 -24 -1 -32 9 -39 4 -60 -40 -11 -24 -11 -24 3 -6 9 11 16 23 16 28 0 4 4 8 9 8 5 0 -1 -19 -12 -42 -12 -23 -23 -36 -25 -29 -6 18 -38 -51 -34 -71 3 -10 11 -18 18 -18 8 0 14 -5 14 -11 0 -6 -7 -9 -15 -5 -10 3 -15 -1 -16 -12 0 -14 -2 -14 -8 3 -6 15 -9 10 -13 -22 -3 -23 -15 -55 -26 -70 -13 -19 -17 -34 -12 -49 6 -16 3 -26 -13 -40 -12 -10 -26 -17 -30 -16 -5 1 -6 -2 -2 -8 3 -6 9 -8 13 -6 4 2 7 -6 7 -19 0 -13 -4 -21 -9 -18 -5 4 -6 -7 -3 -23 3 -16 4 -23 1 -16 -3 6 -9 12 -14 12 -4 0 -8 -6 -7 -12 1 -45 -6 -70 -23 -85 -11 -10 -20 -27 -20 -38 0 -16 -2 -17 -10 -5 -7 11 -10 -2 -10 -45 -1 -55 -2 -58 -15 -41 -15 20 -15 20 -16 0 -1 -10 -1 -27 0 -37 1 -9 -2 -17 -7 -17 -5 0 -8 -12 -5 -28 2 -21 2 -23 -5 -8 -8 18 -9 18 -15 3 -5 -14 -21 -17 -84 -18 -55 -1 -69 -4 -48 -9 23 -5 14 -8 -43 -11 -76 -4 -102 7 -29 14 23 2 -13 4 -80 5 -77 1 -123 -2 -123 -8 0 -5 -4 -10 -8 -10 -15 0 -8 65 9 80 10 9 15 27 14 48 -2 18 1 35 6 38 5 3 7 10 3 15 -9 15 5 61 16 54 6 -3 10 3 10 14 0 13 7 21 18 21 13 0 14 2 3 9 -11 7 -10 14 5 37 19 28 19 28 -1 21 -19 -7 -19 -6 -2 7 9 7 17 18 17 24 0 6 4 12 9 14 19 7 9 78 -11 78 -5 0 -6 5 -2 12 5 8 12 2 21 -17 l13 -30 -5 35 c-5 25 -3 31 4 20 5 -8 13 -11 17 -7 4 3 2 13 -5 21 -9 11 -7 22 9 50 11 20 20 45 20 56 0 11 5 20 11 20 6 0 8 7 5 16 -4 11 -2 15 7 11 8 -3 20 -1 28 5 12 8 12 9 -1 5 -8 -2 -23 -1 -33 2 -16 6 -16 8 -3 26 14 19 15 19 16 2 0 -10 4 -16 9 -13 5 3 7 16 4 29 -4 18 -3 19 6 7 8 -12 11 -8 11 18 0 29 -3 32 -20 27 -14 -4 -20 -2 -20 8 0 20 26 41 35 27 3 -5 10 -10 16 -10 16 0 10 23 -13 47 l-21 23 27 0 c21 0 27 -4 22 -15 -3 -8 0 -15 7 -15 7 0 12 14 13 33 0 17 4 41 8 52 6 16 6 17 -3 5 -9 -12 -11 -12 -11 -1 0 8 7 19 15 25 12 10 12 14 -2 31 -9 11 -13 14 -11 5 3 -8 -2 -22 -10 -30 -14 -13 -15 -12 -9 3 5 13 1 17 -17 17 -14 0 -27 6 -29 13 -4 9 -8 9 -16 -3 -5 -8 -7 -18 -5 -22 3 -4 -2 -5 -10 -2 -8 3 -12 12 -9 20 3 8 -1 14 -10 14 -10 0 -13 -7 -10 -20 3 -11 0 -20 -6 -20 -6 0 -11 9 -11 20 0 25 -17 26 -23 3 -4 -17 -5 -17 -6 0 -1 14 -11 17 -61 17 -59 0 -60 -1 -61 -27 0 -26 -1 -26 -9 -7 -12 30 -28 38 -45 24 -12 -10 -15 -9 -15 4 0 9 5 15 11 14 6 -2 14 3 17 11 3 10 0 12 -12 8 -9 -4 -16 -2 -16 3 0 6 -7 10 -15 10 -9 0 -14 -8 -12 -22 2 -21 -2 -22 -58 -21 -36 1 -63 -3 -67 -10 -5 -8 -8 -7 -8 3 0 13 -1 13 -10 0 -6 -10 -10 -11 -10 -2 0 7 -13 12 -30 12 -20 0 -30 -5 -30 -15 0 -21 -20 -19 -21 3 0 14 -2 14 -9 -3 -6 -13 -9 -15 -9 -5 -1 11 -16 16 -61 18 -38 2 -60 -1 -60 -8 0 -7 -6 -8 -17 -1 -29 15 -37 14 -44 -6 -7 -17 -8 -17 -8 1 -1 20 -1 20 -16 0 -12 -16 -14 -17 -15 -2 0 14 -5 15 -29 8 -21 -6 -31 -5 -34 3 -3 9 -10 9 -26 -1 -12 -7 -21 -8 -21 -2 0 18 -25 5 -38 -20 l-13 -25 6 28 c4 20 1 27 -10 27 -8 0 -15 -4 -15 -8 0 -4 -22 -8 -50 -7 -49 1 -50 1 -45 -26 3 -15 1 -31 -5 -34 -5 -3 -10 -21 -10 -39 l0 -32 178 3 c182 3 227 0 217 -17 -4 -6 22 -9 67 -8 70 2 70 2 16 5 -32 2 -58 9 -58 15 0 13 98 4 113 -11 5 -5 15 -8 21 -7 6 2 8 1 4 -1 -15 -9 -8 -22 9 -16 10 4 14 2 10 -4 -3 -5 5 -16 18 -23 14 -7 27 -26 31 -44 6 -27 8 -29 15 -11 6 17 8 15 9 -10 1 -16 3 -41 4 -55 2 -14 -3 -39 -10 -57 -15 -35 -19 -87 -6 -80 4 3 8 -6 9 -20 1 -18 -2 -22 -7 -13 -6 10 -11 3 -17 -21 -5 -19 -15 -34 -22 -34 -18 0 -31 -26 -31 -62 0 -40 -9 -65 -21 -57 -5 3 -7 -10 -5 -30 2 -20 0 -36 -5 -36 -5 0 -9 6 -9 13 0 8 -4 7 -10 -3 -5 -8 -7 -23 -4 -34 4 -11 2 -16 -4 -12 -13 8 -23 -19 -15 -39 3 -10 0 -15 -8 -13 -8 2 -13 -4 -13 -14 1 -10 -3 -16 -10 -15 -6 1 -10 -4 -8 -10 1 -7 -3 -13 -8 -13 -6 0 -20 -16 -31 -35 -17 -29 -24 -33 -39 -25 -13 7 -21 7 -26 -2 -5 -7 -3 -8 7 -3 8 5 11 5 7 0 -11 -12 -35 -13 -425 -14 -265 -1 -353 -5 -357 -14 -3 -9 -6 -9 -13 0 -12 17 -233 17 -233 0 0 -7 -4 -6 -10 3 -8 13 -11 12 -25 -5 -14 -18 -14 -18 -9 -1 6 15 3 17 -14 12 -26 -9 -38 10 -20 31 9 12 9 15 1 9 -8 -4 -13 -2 -13 6 0 10 -3 9 -11 -2 -9 -13 -10 -13 -6 0 2 8 9 14 15 13 15 -4 25 33 16 59 -6 20 -5 21 9 10 12 -10 17 -10 23 -1 4 8 3 9 -4 5 -17 -11 -15 9 3 24 18 15 19 42 3 58 -9 9 -9 12 0 12 7 0 12 6 11 13 -3 25 1 37 14 35 6 -2 11 5 11 15 -2 14 1 15 12 6 12 -9 13 -9 9 4 -10 24 12 30 99 29 49 -1 76 2 67 7 -9 6 -10 11 -2 15 14 9 33 -2 26 -15 -4 -5 -2 -9 4 -9 5 0 12 8 14 18 4 16 5 16 6 0 1 -16 12 -18 81 -18 60 0 82 4 86 14 3 8 13 12 25 9 16 -5 18 -8 7 -14 -9 -6 -4 -9 15 -9 15 0 27 5 27 11 0 8 5 7 16 -2 9 -7 18 -9 22 -3 10 13 32 16 32 4 0 -7 47 -10 134 -9 119 1 137 3 152 20 21 23 12 25 -11 3 -13 -13 -19 -14 -28 -5 -7 7 -7 11 -2 10 6 -2 20 3 32 11 16 10 19 18 12 26 -7 8 -6 15 2 20 8 5 9 3 4 -6 -5 -8 -4 -11 3 -7 17 11 2 46 -16 40 -13 -3 -13 -1 2 11 15 12 16 16 5 16 -8 0 -25 3 -39 6 -24 6 -24 6 -6 -9 19 -14 17 -15 -21 -15 -31 -1 -43 4 -46 16 -4 15 -5 14 -6 -2 -1 -14 -6 -17 -23 -11 -31 9 -37 9 -83 2 -22 -3 -32 -3 -22 -1 44 13 6 19 -118 19 -74 0 -135 -4 -135 -9 0 -5 -8 1 -18 12 -12 13 -27 20 -40 17 -16 -3 -19 0 -15 12 5 13 1 15 -20 11 -15 -3 -24 -1 -21 3 3 5 -6 20 -20 34 -15 14 -26 30 -26 35 0 6 -4 10 -10 10 -5 0 -10 5 -10 11 0 5 5 7 10 4 6 -3 10 -1 10 4 0 6 -4 11 -9 11 -12 0 -3 64 15 109 8 18 14 46 14 62 0 16 4 29 9 29 4 0 6 12 4 28 -4 21 -2 24 6 12 9 -12 11 -10 11 12 0 15 -4 30 -10 33 -5 3 -10 12 -9 18 0 9 2 9 6 0 2 -7 11 -13 18 -13 15 0 29 44 15 48 -6 2 -1 16 10 32 11 15 20 42 20 60 0 24 4 31 14 27 8 -3 17 1 20 9 3 9 1 12 -4 9 -6 -3 -10 4 -9 17 0 13 3 17 6 11 2 -7 8 -13 13 -13 5 0 2 13 -6 30 -22 43 -26 107 -8 125 9 8 12 15 7 15 -5 0 -14 -5 -21 -12 -9 -9 -13 -7 -18 7 -5 11 -3 20 4 23 14 4 16 32 3 32 -22 0 -41 -13 -41 -29 0 -21 -19 -41 -39 -41 -21 1 -56 28 -48 36 4 4 14 1 23 -6 13 -11 17 -11 24 -1 6 11 9 11 14 0 3 -8 5 -6 3 6 -1 11 -12 22 -27 25 -14 4 -24 13 -22 20 2 7 -3 17 -10 21 -10 7 -9 9 5 9 21 0 21 2 3 44 -8 19 -24 37 -35 41 -29 9 -79 -15 -84 -40 -2 -11 -2 -2 0 20 2 22 9 43 16 47 6 4 8 10 5 14 -4 3 -14 0 -22 -9 -8 -8 -12 -17 -9 -21 4 -3 -10 -6 -30 -6 -35 0 -36 -1 -30 -30 5 -30 5 -30 -39 -30 -24 0 -49 -5 -56 -12 -16 -16 -15 -58 1 -58 6 0 4 -5 -6 -11 -23 -14 -53 -4 -40 14 16 20 16 99 1 108 -10 7 -10 11 -1 17 22 14 -7 43 -34 36 -13 -4 -23 -11 -23 -16 0 -6 9 -8 20 -5 22 6 37 -8 20 -18 -6 -4 -7 -12 -4 -18 5 -8 3 -8 -7 1 -17 16 -37 16 -21 0 16 -16 15 -28 -1 -28 -7 0 -17 10 -22 23 -6 12 -16 21 -23 19 -9 -1 -10 6 -6 25 4 16 9 30 11 33 3 3 36 5 73 5 51 1 67 -2 60 -10 -17 -20 -1 -23 41 -9 22 8 44 12 49 9 5 -3 30 -1 56 5 33 8 50 8 58 0 15 -15 46 -12 46 4 0 15 48 28 56 15 3 -5 -7 -9 -23 -10 -22 0 -24 -2 -10 -8 10 -4 35 -5 55 -2 20 3 29 6 20 9 -19 4 -25 22 -8 22 6 0 10 11 10 25 0 29 0 29 35 13 14 -6 25 -19 25 -30 0 -12 7 -18 24 -18 13 0 31 -3 40 -6 12 -5 16 0 17 17 1 20 2 18 10 -8 8 -27 15 -33 36 -33 26 0 26 1 7 16 -10 8 -14 13 -8 10 7 -3 17 1 24 9 14 17 34 9 26 -11 -3 -7 -1 -16 4 -19 9 -6 25 13 25 30 0 6 10 11 23 13 12 2 22 -1 22 -7 0 -6 -7 -11 -15 -11 -9 0 -12 -6 -9 -15 5 -12 10 -13 20 -4 7 6 18 8 23 5 5 -4 19 4 30 16 12 12 21 16 21 9 0 -7 5 -9 10 -6 6 4 17 1 25 -5 11 -9 15 -9 15 -1 0 6 9 11 20 11 13 0 20 -7 20 -19 0 -10 9 -21 20 -24 11 -3 20 -1 20 4 0 5 -4 9 -10 9 -5 0 -9 3 -8 8 0 4 -2 15 -7 25 -11 27 2 33 26 12 17 -17 22 -17 31 -5 8 12 9 12 4 -2 -5 -16 4 -23 27 -19 4 0 7 -3 7 -7 0 -7 69 -2 115 8 6 1 17 2 25 0 11 -1 9 -4 -5 -9 -17 -7 -14 -9 15 -14 30 -6 35 -11 36 -37 1 -22 -3 -30 -17 -30 -9 0 -19 5 -21 12 -3 7 -7 6 -11 -5 -4 -11 -1 -17 8 -17 28 0 95 -25 92 -34 -2 -5 -13 -13 -26 -17 -19 -7 -21 -6 -17 9 5 15 -1 17 -54 16 -53 -1 -60 1 -60 17 0 11 -7 19 -15 19 -9 0 -12 -6 -9 -15 8 -19 -18 -45 -42 -41 -11 2 -14 1 -8 -1 6 -2 11 -17 11 -33 0 -38 7 -45 30 -31 17 10 17 10 0 11 -10 0 -15 5 -12 10 3 6 16 10 27 10 11 0 26 7 32 14 6 8 23 18 39 22 21 5 27 3 27 -10 0 -9 10 -21 23 -26 22 -9 22 -9 -3 -10 -14 -1 -20 -4 -13 -6 6 -3 27 -1 45 4 40 11 58 6 58 -16 0 -11 3 -13 8 -6 9 15 91 23 86 9 -3 -6 26 -10 76 -11 44 -1 78 1 75 4 -2 3 3 11 13 18 15 11 18 9 23 -24 l6 -37 3 45 c2 42 3 43 10 15 l7 -30 10 25 c8 20 7 27 -6 37 -21 16 -58 16 -65 1 -3 -7 -4 0 -1 16 6 26 4 28 -20 22 -21 -5 -25 -3 -25 14 0 15 7 20 25 20 14 0 25 5 25 10 0 7 7 7 21 0 11 -6 28 -9 37 -7 13 3 11 6 -10 15 -14 6 -29 16 -33 22 -4 7 -13 3 -26 -11 -10 -12 -19 -20 -20 -18 0 2 -2 23 -5 47 -4 27 -2 42 5 42 6 0 11 -4 11 -9 0 -13 76 -25 92 -15 7 5 21 7 30 6 9 -2 36 2 58 8 32 9 40 15 36 28 -3 10 1 8 10 -5 10 -14 27 -23 43 -24 23 0 24 -1 6 -9 -15 -7 -16 -9 -4 -9 9 -1 27 7 40 17 20 16 40 18 118 16 64 -1 89 1 78 8 -10 5 -15 13 -12 19 10 15 41 10 65 -11 21 -18 25 -19 32 -5 12 21 140 22 136 1 -3 -16 -3 -16 45 -16 22 0 28 3 18 9 -7 5 -10 14 -6 20 5 9 10 9 21 0 7 -6 12 -14 10 -18 -2 -3 15 -6 37 -5 63 2 69 3 62 15 -4 6 2 13 14 16 12 3 21 9 21 14 0 5 7 9 16 9 13 0 15 -7 10 -32 -4 -25 -3 -29 5 -18 8 11 12 12 16 3 6 -16 53 -17 53 -2 0 6 6 9 13 6 6 -2 20 0 31 5 25 14 41 -11 18 -28 -14 -10 -10 -12 23 -12 22 0 43 5 47 11 5 8 16 8 40 -1 18 -6 51 -10 73 -7 22 2 50 4 63 4 12 1 22 7 22 14 0 18 101 37 122 24 11 -7 21 -4 36 11 16 16 18 22 6 26 -8 3 -14 1 -14 -4 0 -6 -8 -10 -17 -10 -10 0 -14 4 -8 8 14 10 17 32 5 32 -6 0 -10 -4 -10 -10 0 -5 -9 -14 -19 -19 -16 -9 -18 -8 -14 8 4 16 1 19 -16 14 -12 -3 -21 -9 -21 -14 0 -16 -47 -10 -61 7 -12 15 -11 16 7 10 14 -4 26 -1 34 9 7 8 21 15 30 15 10 0 21 6 23 13 3 7 6 5 6 -5 1 -10 8 -18 17 -18 10 0 13 6 10 18 -4 13 0 17 19 17 17 0 25 -5 24 -15 -3 -31 2 -40 20 -40 11 0 23 -4 26 -10 3 -5 1 -10 -6 -10 -10 0 -10 -2 0 -12 10 -11 15 -9 27 7 15 19 16 19 29 1 14 -18 41 -13 29 6 -4 7 2 8 17 3 13 -4 27 -13 31 -19 4 -6 10 -8 13 -4 8 8 -31 48 -47 48 -6 0 -4 6 7 13 26 19 10 38 -25 30 -23 -4 -30 -2 -30 10 0 8 -7 18 -16 21 -17 7 -37 -1 -30 -12 2 -4 -5 -16 -16 -27 -19 -20 -19 -20 -14 8 4 22 0 28 -20 33 -13 3 -30 2 -37 -4 -17 -14 -87 -25 -87 -14 0 5 10 12 23 16 19 5 20 8 7 17 -12 8 -10 9 10 4 29 -8 34 -8 120 -3 77 5 91 2 83 -20 -5 -11 -2 -14 9 -9 15 5 57 -29 57 -46 -1 -18 11 -19 18 -1 3 10 11 22 17 26 6 4 -2 8 -19 8 -27 1 -28 2 -12 14 21 16 22 26 3 26 -13 0 -31 28 -23 36 2 2 21 -12 42 -31 36 -34 61 -41 36 -11 -10 11 -10 19 -1 33 10 16 10 15 5 -4 -6 -21 -3 -23 37 -24 24 -1 46 -1 51 0 4 0 7 -3 7 -9 0 -5 -13 -7 -30 -3 -19 3 -30 1 -30 -6 0 -6 9 -11 20 -11 12 0 20 -7 20 -16 0 -13 3 -14 15 -4 8 6 19 9 25 5 6 -4 46 -9 88 -11 76 -4 100 -13 88 -33 -11 -17 -47 -13 -62 7 -12 16 -14 16 -31 -1 -17 -18 -17 -19 1 -32 10 -7 15 -18 11 -24 -3 -6 6 -16 21 -23 24 -11 29 -10 51 16 23 27 25 28 38 10 8 -11 15 -23 15 -28 0 -6 5 -5 12 2 17 17 38 15 38 -3 0 -13 6 -13 42 2 31 12 43 14 46 5 6 -19 79 -15 86 4 5 12 10 13 19 6 10 -8 13 -6 13 9 0 12 -8 19 -21 20 -18 1 -18 2 -2 6 10 3 16 11 14 18 -3 7 0 18 6 24 8 8 8 14 -1 23 -19 19 -14 28 14 28 22 0 25 2 14 15 -11 13 -8 15 14 15 26 0 35 -13 16 -25 -5 -3 -10 -10 -10 -14 0 -10 57 -7 67 2 3 4 11 -1 18 -10 9 -12 14 -13 19 -4 5 8 -3 16 -23 24 -17 6 -31 15 -31 20 0 5 7 7 15 3 17 -6 20 5 5 20 -14 14 -5 36 21 52 24 15 39 8 39 -20 0 -16 -4 -19 -24 -14 -24 6 -24 5 -10 -23 8 -16 21 -34 29 -41 8 -7 12 -17 9 -22 -4 -6 4 -4 17 2 34 18 34 18 11 43 -17 18 -20 29 -13 52 7 27 8 28 15 9 3 -12 4 -29 0 -38 -8 -21 19 -22 40 -1 13 14 16 13 29 -6 10 -14 17 -17 22 -9 4 7 17 9 29 6 20 -5 19 -4 -4 15 l-24 21 34 -4 c30 -3 35 -7 38 -31 3 -28 26 -33 28 -6 2 30 5 34 14 19 5 -8 13 -11 17 -6 4 5 2 11 -6 14 -7 2 -32 22 -53 43 -40 39 -40 39 -14 39 14 0 26 -6 27 -12 0 -20 58 -61 74 -54 8 3 15 12 15 21 0 18 12 19 28 3 9 -9 15 -10 20 -2 7 11 51 24 100 30 25 3 44 14 24 14 -12 0 -9 90 3 111 4 5 -1 19 -11 30 -9 10 -13 19 -8 20 5 0 -1 4 -12 9 -24 10 -36 54 -23 84 9 20 9 20 8 1 -4 -66 -2 -68 46 -62 46 7 59 -4 28 -22 -10 -6 -13 -11 -6 -11 7 0 10 -7 7 -17 -5 -15 -4 -16 5 -3 7 11 13 12 22 3 15 -15 7 -48 -11 -48 -26 -1 -40 -16 -40 -44 0 -34 9 -44 27 -30 10 9 13 6 13 -14 0 -32 14 -42 30 -22 9 10 9 15 1 15 -6 0 -11 5 -11 12 0 9 3 9 12 0 19 -19 28 -14 28 13 0 22 2 24 14 13 10 -9 11 -15 2 -20 -8 -6 -7 -10 3 -17 9 -6 10 -11 2 -15 -6 -4 -11 -1 -11 6 -1 7 -8 1 -16 -14 -10 -19 -23 -28 -39 -28 -14 0 -25 3 -25 8 0 4 -16 8 -36 9 -23 1 -34 -2 -31 -10 2 -7 13 -12 25 -12 12 0 21 -4 21 -8 0 -5 7 -14 17 -21 13 -10 15 -21 11 -46 -6 -27 -5 -31 7 -20 8 6 16 21 18 33 2 14 10 21 21 21 9 -1 17 4 17 12 0 8 5 14 11 14 6 0 8 9 4 20 -5 17 -2 20 20 20 20 0 26 4 21 15 -3 9 0 15 10 15 8 0 13 -4 9 -9 -3 -5 -1 -12 5 -16 5 -3 10 -1 10 5 0 6 4 8 10 5 6 -3 10 -13 10 -21 0 -8 16 -32 36 -52 28 -28 34 -31 23 -12 -7 14 -12 29 -11 33 1 4 -5 10 -13 13 -15 6 -21 35 -9 47 4 3 17 -1 29 -9 20 -13 24 -13 38 1 19 18 28 19 24 3 -1 -7 9 -12 23 -12 18 -1 29 7 39 29 l15 30 6 -25 c8 -30 4 -40 -16 -40 -8 0 -14 -7 -14 -15 0 -17 16 -20 25 -5 3 6 15 10 25 10 10 0 22 9 25 20 5 15 14 20 35 18 17 -1 26 -7 23 -14 -3 -7 -11 -10 -19 -7 -14 5 -44 -19 -44 -36 0 -6 5 -11 10 -11 6 0 10 7 10 15 0 21 12 19 38 -5 18 -17 20 -24 9 -40 -17 -28 -30 -25 -25 5 5 24 4 24 -58 21 -56 -3 -65 -1 -84 21 -17 20 -24 22 -36 12 -8 -6 -12 -14 -9 -17 3 -3 0 -11 -6 -19 -9 -9 -8 -13 0 -13 6 0 14 7 17 15 8 21 26 19 22 -2 -2 -10 2 -18 7 -18 6 0 16 -4 23 -8 7 -5 19 -2 28 7 8 9 20 16 25 16 14 0 59 -51 59 -66 0 -8 4 -14 9 -14 5 0 18 -3 28 -6 13 -4 15 -3 4 4 -11 8 -10 13 5 31 10 11 26 21 35 21 10 0 20 6 23 13 3 6 4 3 3 -8 -2 -18 3 -20 41 -17 25 2 42 -1 42 -7 0 -6 5 -11 10 -11 28 0 -2 45 -36 52 -10 3 19 3 65 0 90 -5 91 -4 52 42 -14 16 -11 15 21 -3 33 -20 36 -26 32 -57 -3 -24 0 -34 10 -34 19 0 30 -32 14 -41 -8 -5 -14 -3 -16 6 -4 16 -22 21 -22 6 0 -5 -3 -16 -6 -25 -4 -11 -1 -16 11 -16 11 0 15 -5 11 -15 -3 -9 0 -15 9 -15 8 0 17 11 21 25 8 30 20 32 29 4 5 -16 10 -18 21 -8 20 16 18 39 -4 39 -21 0 -46 52 -37 80 4 13 1 22 -9 26 -19 7 -21 34 -3 34 7 0 23 -7 35 -16 21 -14 21 -17 6 -45 -16 -31 -12 -65 6 -54 5 3 10 19 10 35 0 23 4 28 16 23 14 -5 15 -3 5 16 -16 29 -6 41 35 41 19 0 34 5 34 10 0 6 12 10 26 10 18 0 25 -4 21 -14 -4 -9 0 -13 11 -11 9 1 20 -2 23 -7 4 -6 16 4 28 21 19 27 24 29 37 17 8 -8 14 -19 14 -25 0 -15 22 -9 36 8 7 9 13 10 18 3 4 -7 14 -7 34 0 23 9 32 8 50 -8 16 -13 18 -20 9 -26 -18 -11 -59 -10 -52 2 3 6 1 10 -4 10 -6 0 -11 -7 -11 -15 0 -10 14 -17 40 -21 22 -4 40 -10 40 -15 0 -5 12 -9 26 -9 14 0 22 -4 19 -10 -7 -12 -74 -10 -99 2 -12 7 -21 7 -25 0 -3 -6 -18 0 -36 14 -29 23 -29 24 -7 24 13 0 20 4 17 10 -9 15 -44 12 -61 -4 -19 -20 -18 -26 5 -26 22 0 39 -19 19 -21 -42 -4 -81 1 -93 11 -11 9 -17 4 -30 -24 -9 -19 -14 -40 -10 -45 3 -6 1 -11 -4 -11 -6 0 -11 7 -11 15 0 8 -5 15 -11 15 -12 0 -1 43 12 48 15 6 10 32 -6 32 -8 0 -15 -7 -15 -15 0 -9 -6 -12 -15 -9 -8 4 -15 1 -15 -5 0 -6 5 -11 10 -11 6 0 10 -7 10 -15 0 -9 7 -27 16 -40 11 -17 14 -36 10 -59 -5 -25 -3 -35 9 -39 11 -5 14 0 13 16 -1 12 6 43 16 70 15 38 23 47 43 47 14 0 21 -4 18 -10 -3 -5 -14 -10 -24 -10 -15 0 -20 -11 -25 -50 -4 -28 -4 -55 -1 -60 9 -15 41 -12 55 6 11 13 10 16 -7 20 -32 9 -36 41 -7 48 13 4 24 13 24 21 0 8 5 15 10 15 6 0 10 -8 10 -19 0 -16 33 -31 71 -31 14 0 11 48 -3 53 -8 3 -7 6 4 6 12 1 18 -9 20 -31 l4 -33 12 29 c8 19 17 26 28 22 9 -3 18 -6 20 -6 2 0 4 -7 4 -15 0 -23 18 -18 36 10 9 14 23 25 30 25 9 0 14 11 14 31 0 16 -4 28 -9 25 -13 -8 -42 4 -35 15 3 5 1 9 -4 9 -6 0 -13 7 -16 15 -9 24 20 29 42 8 43 -41 54 -94 25 -113 -12 -8 -14 -13 -6 -16 7 -3 9 -12 6 -20 -4 -10 0 -12 11 -8 16 6 21 19 30 87 4 29 1 37 -11 37 -12 0 -11 5 7 20 13 11 31 20 41 20 11 0 24 9 31 20 15 24 40 27 31 4 -3 -9 0 -20 8 -26 11 -7 9 -8 -6 -4 -11 3 -26 2 -34 -3 -19 -12 15 -29 75 -38 34 -4 48 -2 55 8 7 11 9 11 9 1 0 -8 -9 -16 -20 -19 -24 -6 -24 -7 -4 -38 16 -25 44 -34 44 -15 0 6 5 10 11 10 14 0 39 26 39 40 0 7 -16 -2 -36 -20 -42 -36 -55 -33 -28 7 10 15 19 31 19 35 0 16 17 21 25 8 5 -8 12 -11 16 -7 4 3 1 13 -6 22 -7 9 -10 18 -6 22 8 8 36 -29 30 -39 -3 -5 11 -8 31 -8 20 0 34 4 31 9 -4 5 -4 16 0 24 6 16 100 21 110 6 3 -5 -1 -9 -8 -9 -8 -1 -6 -6 6 -15 19 -15 19 -15 -2 -15 -17 0 -22 -6 -22 -25 0 -14 5 -25 11 -25 6 0 8 9 4 20 -5 17 -2 20 20 20 15 0 24 4 20 10 -3 6 1 10 9 10 10 0 16 9 16 25 0 18 -7 26 -25 31 -14 3 -23 9 -21 13 3 4 -12 7 -32 7 -20 1 -29 -1 -19 -3 9 -3 17 -9 17 -14 0 -12 -111 -11 -130 1 -13 8 -12 10 3 10 9 0 17 4 17 9 0 5 23 11 50 15 33 4 50 11 50 21 0 16 18 30 28 20 3 -3 0 -10 -8 -15 -24 -15 -6 -21 74 -23 65 -2 76 0 76 14 0 9 -7 19 -15 23 -8 3 -15 1 -15 -4 0 -17 -28 -11 -39 8 -6 9 -11 11 -11 5 0 -7 -7 -13 -16 -13 -14 0 -15 2 -3 17 13 15 11 16 -11 10 -14 -4 -30 -7 -37 -7 -6 0 -19 -8 -29 -17 -17 -17 -64 -26 -64 -13 0 4 -15 12 -34 19 -25 10 -32 18 -29 32 3 11 10 19 15 19 5 0 7 -4 4 -8 -8 -14 11 -34 29 -30 17 3 18 4 2 20 -20 19 -15 24 34 33 36 7 61 -6 39 -20 -24 -15 -4 -20 85 -21 95 -2 95 -2 95 23 0 14 4 22 11 18 5 -4 22 -4 37 0 23 6 25 8 9 16 -22 13 -24 87 -2 95 11 5 15 21 14 60 -2 52 -2 54 -30 54 -30 0 -36 -9 -19 -26 6 -6 2 -14 -11 -22 -12 -8 -18 -9 -14 -3 4 7 -5 11 -22 12 l-28 1 25 7 c15 5 24 14 24 25 -1 9 0 15 4 12 5 -6 31 24 32 37 0 5 -5 5 -12 1 -18 -11 -91 -5 -101 9 -6 8 -7 6 -3 -5 3 -12 0 -18 -9 -18 -8 0 -15 6 -15 13 0 26 -24 47 -48 41 -14 -4 -21 -12 -18 -20 3 -7 -3 -15 -12 -17 -16 -4 -15 -5 1 -6 17 -1 24 -17 10 -24 -12 -5 -53 42 -42 48 5 4 7 10 4 15 -3 4 5 10 17 13 17 5 19 9 10 20 -6 7 -9 23 -5 35 4 15 1 22 -10 22 -8 0 -18 8 -22 18 -7 16 -8 15 -15 -3 -7 -17 -9 -17 -9 -2 -1 20 -17 23 -24 5 -4 -10 -7 -10 -14 0 -7 9 -13 6 -23 -13 -7 -14 -20 -25 -28 -25 -8 0 -12 -6 -8 -15 7 -19 -26 -20 -75 -4 -49 17 -55 26 -34 49 10 11 13 20 7 20 -7 0 -12 -4 -12 -10 0 -5 -13 -10 -30 -10 -16 0 -30 5 -30 10 0 6 -10 10 -22 10 -18 0 -20 -2 -8 -10 11 -7 12 -12 3 -21 -6 -6 -9 -18 -6 -27 4 -10 2 -13 -6 -8 -6 4 -11 13 -10 19 7 60 -26 65 -36 6 l-7 -42 -24 29 c-13 16 -23 35 -24 42 0 17 -40 15 -40 -2 0 -27 -24 -36 -63 -24 -40 12 -48 24 -19 30 9 2 -29 4 -86 5 -56 0 -105 -3 -108 -8 -3 -6 -11 -5 -20 2 -11 9 -17 9 -29 -1 -12 -10 -15 -10 -15 1 0 7 -18 -5 -40 -26 -39 -38 -40 -38 -40 -14 0 14 5 30 11 36 9 9 -3 12 -45 12 -49 0 -74 -11 -46 -21 6 -2 6 -14 1 -33 -5 -16 -10 -25 -11 -20 -10 61 -23 72 -91 72 l-56 1 2 -65 c1 -63 -14 -107 -32 -90 -4 5 1 15 11 23 20 14 20 14 0 30 -13 11 -15 17 -6 20 6 3 12 23 12 45 l0 39 -97 -1 c-106 -1 -133 -5 -133 -20 0 -12 147 -12 155 1 4 6 11 8 16 4 6 -4 6 -11 -2 -20 -8 -10 -8 -18 -1 -27 7 -8 7 -18 2 -27 -14 -22 -12 -47 6 -64 13 -14 13 -16 0 -16 -8 0 -16 6 -18 14 -3 12 -6 13 -21 1 -17 -12 -15 -14 26 -20 27 -4 53 -2 66 4 19 11 21 9 21 -14 0 -28 -25 -44 -43 -26 -12 12 -47 15 -47 4 0 -12 50 -32 65 -27 7 3 16 1 20 -5 3 -7 0 -8 -9 -5 -9 3 -16 1 -16 -5 0 -17 -68 28 -75 50 -5 14 -15 18 -44 17 -21 0 -42 2 -48 5 -5 4 -20 -3 -33 -15 -22 -21 -22 -21 -16 0 6 17 3 19 -15 15 -15 -4 -20 -3 -15 5 10 16 -36 16 -52 0 -9 -9 -12 -9 -12 0 0 20 -16 14 -27 -10 l-10 -23 -7 23 c-4 12 -13 22 -19 23 -7 1 -1 4 13 8 16 5 24 13 22 24 -2 10 4 17 13 17 12 0 15 -6 10 -22 -6 -17 -4 -20 10 -15 9 4 30 7 47 7 25 0 28 2 18 14 -6 8 -18 12 -26 9 -10 -4 -17 2 -21 17 -4 13 -8 17 -13 10 -5 -7 -14 -8 -32 -1 -29 11 -50 -2 -41 -25 3 -8 0 -14 -6 -14 -6 0 -11 -12 -11 -26 0 -34 -24 -26 -28 9 -2 19 1 27 11 27 10 0 13 7 10 20 -4 14 0 20 11 20 9 0 16 7 16 15 0 8 -5 15 -11 15 -5 0 -8 -4 -4 -9 3 -5 -5 -13 -17 -17 -13 -4 -26 -12 -30 -18 -5 -7 -8 -4 -8 7 0 9 -4 17 -10 17 -5 0 -10 -6 -10 -14 0 -8 -9 -18 -20 -21 -20 -6 -25 -29 -14 -59 9 -23 22 -20 27 7 4 19 4 18 6 -5 0 -16 7 -28 14 -28 9 0 9 -2 -1 -9 -31 -19 -101 17 -84 44 17 26 -4 55 -29 40 -5 -3 -18 -1 -30 5 -17 10 -23 8 -36 -9 -8 -12 -19 -21 -24 -21 -13 0 -40 -26 -33 -32 2 -3 -2 -11 -11 -18 -13 -10 -15 -9 -15 9 0 22 -29 31 -31 9 0 -7 -4 -4 -9 7 -7 18 -8 19 -15 3 -9 -22 -41 -24 -48 -3 -7 16 8 29 22 21 5 -3 12 1 15 10 5 12 2 15 -10 10 -8 -3 -22 -6 -30 -6 -8 0 -14 -7 -14 -16 0 -34 -25 -5 -28 33 -2 33 -7 40 -20 37 -9 -2 -24 0 -32 6 -12 7 -13 13 -3 28 9 15 9 22 0 31 -13 13 -61 15 -53 2 7 -11 -22 -23 -35 -15 -5 3 -7 10 -4 15 4 5 2 9 -4 9 -5 0 -12 -6 -14 -12 -4 -10 -6 -10 -6 0 -1 17 -21 15 -21 -3 0 -14 -11 -19 -37 -16 -7 1 -13 -3 -13 -9 0 -7 -10 -9 -28 -5 -38 8 -62 -17 -44 -46 15 -24 15 -29 -2 -29 -18 0 -24 38 -11 67 7 16 19 23 38 23 15 0 27 5 27 11 0 6 -9 8 -20 4 -11 -3 -20 -2 -20 4 0 6 -42 10 -110 9 -110 0 -128 -6 -141 -44 -3 -7 -11 -8 -24 -3 -19 8 -19 8 3 15 41 12 25 31 -28 33 -45 1 -50 -2 -51 -22 -1 -21 -1 -21 -9 3 -7 21 -8 19 -9 -17 -1 -35 2 -41 15 -36 12 4 15 2 12 -8 -3 -8 -11 -14 -19 -14 -9 0 -16 16 -19 50 -5 43 -7 46 -11 20 l-6 -30 -2 28 c0 15 -6 27 -11 27 -6 0 -8 -11 -4 -26 5 -19 4 -25 -5 -20 -6 4 -11 16 -11 27 0 14 -7 19 -30 19 -22 0 -30 -5 -30 -17 0 -13 3 -14 12 -5 17 17 28 15 28 -7 0 -15 -8 -18 -42 -18 -57 -1 -81 12 -39 20 49 10 36 27 -20 27 -45 0 -50 -2 -39 -15 10 -12 10 -19 2 -27 -8 -8 -8 -17 -1 -30 10 -18 7 -19 -32 -16 -40 3 -44 6 -52 38 l-9 35 -14 -34 c-12 -28 -16 -31 -29 -21 -19 16 -19 29 2 52 16 18 15 19 -41 16 -55 -3 -57 -4 -51 -27 l6 -25 -18 23 c-12 14 -34 24 -61 28 -36 5 -42 3 -42 -13 -1 -18 -1 -18 -14 -1 -15 20 -32 22 -39 5 -4 -10 -6 -10 -6 0 -1 9 -58 12 -252 11 -138 0 -262 -4 -275 -9 -15 -6 -24 -6 -24 0 0 6 -10 10 -21 10 -18 0 -19 -2 -9 -15 8 -9 8 -15 2 -15 -6 0 -17 7 -26 15 -12 12 -51 15 -218 15 l-204 0 -22 -25 c-13 -15 -28 -23 -34 -19 -9 6 -9 9 0 12 7 2 12 10 12 18 0 12 -38 14 -229 14 -210 0 -230 -1 -234 -17 -4 -17 -5 -17 -6 -1 -1 17 -51 18 -876 18 l-875 0 -16 -25z m3361 -2417 c-18 -11 -17 -13 20 -24 22 -7 32 -13 23 -13 -11 -1 -15 -6 -12 -16 8 -20 21 -19 28 3 5 13 23 22 65 30 64 11 97 7 121 -16 12 -13 11 -14 -8 -8 -12 4 -22 3 -22 -2 0 -15 31 -23 45 -12 9 8 14 7 17 -1 6 -17 48 -1 48 18 0 22 13 7 15 -17 2 -25 -6 -27 -95 -24 -110 4 -130 -2 -130 -37 0 -25 4 -29 29 -29 17 0 33 -4 36 -10 4 -6 -10 -10 -34 -10 -33 0 -41 4 -41 19 0 10 -5 32 -11 49 -8 24 -15 30 -32 26 -22 -4 -61 28 -49 41 4 4 -12 4 -36 0 l-42 -7 11 26 c9 20 19 26 43 26 28 -1 29 -2 11 -12z m541 -248 c8 0 14 -7 14 -16 0 -11 -8 -15 -27 -12 -19 2 -28 -2 -28 -12 0 -8 -10 -17 -23 -20 -13 -3 -23 -9 -23 -15 -1 -16 -18 -32 -40 -38 -16 -4 -18 -3 -8 9 6 7 16 11 21 8 5 -4 8 8 6 27 -3 33 -23 51 -31 27 -2 -7 -2 -3 0 10 2 17 -1 22 -17 22 -14 0 -20 -7 -20 -21 0 -19 -1 -19 -16 -5 -18 19 -24 19 -44 6 -12 -8 -11 -10 7 -8 12 2 21 -1 20 -7 -2 -9 -32 -10 -105 -6 -13 0 -21 5 -18 9 3 5 18 8 35 7 25 -1 28 1 18 15 -5 10 -7 25 -4 35 6 15 9 15 26 -6 16 -19 21 -21 34 -11 11 10 17 10 22 2 5 -8 17 -2 36 16 16 15 29 23 29 17 0 -19 31 -44 43 -36 7 5 21 8 32 8 14 0 19 6 17 19 -2 11 1 15 7 11 6 -3 12 0 12 7 1 7 4 1 6 -14 2 -16 11 -28 19 -28z"/>
<path d="M3914 2245 c4 -10 -1 -15 -15 -15 -16 0 -19 -4 -14 -20 5 -15 2 -20 -12 -20 -11 0 -19 -8 -20 -17 -5 -48 -16 -82 -29 -87 -8 -3 -14 1 -14 9 0 7 -4 17 -10 20 -6 4 -7 -5 -4 -23 4 -18 0 -41 -10 -60 -21 -41 -20 -43 9 -36 17 4 27 2 30 -9 7 -17 51 -17 48 1 -2 7 2 12 7 12 6 0 10 -4 10 -10 0 -5 5 -10 10 -10 6 0 10 9 10 20 0 11 -4 20 -9 20 -5 0 -13 9 -16 21 -5 15 -10 18 -18 10 -14 -14 -27 -14 -27 -1 0 6 6 10 14 10 7 0 19 7 27 16 11 14 10 15 -6 12 -13 -2 -21 4 -23 16 -3 14 0 17 13 12 9 -3 23 -6 32 -6 9 0 13 -6 9 -15 -3 -9 0 -15 10 -15 15 0 12 35 -7 72 -6 11 -4 18 6 22 11 4 15 -2 15 -19 0 -18 5 -25 20 -25 11 0 20 7 20 15 0 8 5 15 10 15 6 0 10 9 10 20 0 11 -6 20 -14 20 -9 0 -12 7 -9 20 7 25 20 26 26 3 4 -16 5 -16 6 -1 0 9 -3 19 -8 22 -16 10 -41 -6 -41 -26 0 -11 -4 -16 -11 -12 -6 3 -9 14 -6 24 3 11 -2 21 -10 24 -11 4 -13 2 -9 -9z"/>
<path d="M4508 2218 c4 -16 2 -19 -8 -13 -10 6 -12 2 -8 -17 3 -14 0 -25 -7 -25 -6 0 -10 12 -9 26 1 15 -1 18 -3 7 -4 -16 -7 -17 -15 -5 -6 10 -7 7 -2 -11 4 -14 10 -26 14 -28 10 -4 0 -53 -15 -75 -12 -17 -14 -17 -23 -2 -8 16 -10 16 -15 1 -4 -9 -3 -16 1 -16 4 0 13 -14 21 -30 10 -25 16 -28 27 -19 11 9 14 8 14 -2 0 -11 2 -11 10 1 9 13 11 13 20 0 7 -11 5 -16 -5 -18 -7 -2 -15 -13 -17 -25 -2 -14 -11 -23 -25 -25 -24 -4 -32 -22 -10 -22 6 0 23 -3 37 -6 18 -4 21 -3 11 4 -8 6 -9 12 -3 16 6 3 13 2 16 -3 3 -5 16 -7 28 -3 14 3 19 2 14 -6 -5 -9 6 -12 37 -12 24 0 46 2 49 5 12 12 -6 57 -26 65 -20 7 -19 8 8 15 32 9 50 -9 36 -34 -9 -16 10 -41 32 -41 8 1 6 6 -6 15 -18 14 -18 15 -2 21 10 4 21 2 26 -6 6 -10 12 -9 31 1 16 8 20 14 10 17 -7 2 -16 0 -20 -6 -4 -6 -18 -1 -36 14 -22 18 -26 24 -13 24 10 0 22 9 28 21 11 20 12 20 25 2 7 -10 17 -15 21 -11 4 4 1 14 -6 23 -17 20 -5 32 15 15 12 -10 16 -9 21 5 4 9 2 21 -5 28 -15 15 -14 28 3 25 8 -2 14 2 13 7 -1 6 -12 9 -24 7 -25 -3 -40 15 -24 31 17 17 13 26 -8 20 -13 -3 -17 -11 -13 -26 l5 -22 -22 22 c-11 12 -21 30 -21 40 -1 17 -1 17 -11 0 -8 -13 -6 -21 5 -33 28 -28 39 -54 22 -54 -8 0 -18 5 -22 11 -5 8 -9 7 -15 -3 -5 -10 -18 -14 -34 -10 -28 5 -33 23 -10 42 12 10 18 10 32 -1 15 -13 15 -12 4 9 -7 12 -19 21 -28 20 -9 -2 -18 3 -20 10 -3 6 2 12 11 12 9 0 16 4 16 9 0 17 -21 23 -36 10 -12 -10 -16 -9 -21 10 -8 31 -31 8 -26 -27 4 -25 3 -24 -14 8 -20 39 -44 52 -35 18z"/>
<path d="M6259 2219 c0 -13 -3 -18 -6 -11 -4 10 -8 10 -19 1 -7 -6 -25 -8 -38 -5 -18 4 -28 1 -34 -11 -9 -14 -11 -14 -21 5 -24 45 -121 8 -105 -40 3 -10 1 -18 -4 -18 -15 0 -34 28 -42 63 -7 28 -8 29 -9 7 -1 -20 -3 -22 -11 -10 -8 11 -9 9 -8 -12 2 -27 18 -40 18 -15 0 6 5 4 11 -6 7 -12 8 -22 2 -28 -12 -12 -4 -59 10 -59 6 0 8 -2 5 -5 -14 -14 -38 9 -38 36 0 16 -4 29 -10 29 -5 0 -10 -11 -10 -24 0 -14 -4 -28 -10 -31 -19 -12 -11 -37 9 -30 11 3 22 1 26 -5 3 -5 -1 -10 -9 -10 -13 0 -16 -12 -16 -59 0 -54 -2 -60 -22 -64 -20 -4 -20 -4 4 -6 25 -1 27 2 30 46 2 28 8 47 16 49 7 1 8 0 2 -3 -5 -2 -10 -23 -9 -46 1 -35 2 -38 8 -17 l7 25 6 -25 c3 -14 9 -33 13 -42 5 -13 2 -15 -13 -11 -25 6 -62 -13 -62 -32 0 -15 -15 -19 -59 -15 -14 1 -21 -2 -17 -9 4 -6 2 -11 -3 -11 -6 0 -11 -8 -11 -18 0 -10 -4 -22 -10 -28 -5 -5 -12 -25 -14 -42 -4 -37 -11 -48 -21 -33 -3 6 -1 11 4 11 6 0 11 5 11 11 0 8 -4 8 -14 0 -10 -8 -12 -24 -8 -54 5 -38 4 -41 -11 -28 -14 11 -18 11 -23 -3 -3 -9 -2 -22 3 -29 6 -8 3 -24 -8 -47 -10 -19 -18 -29 -19 -21 0 8 -3 11 -6 8 -4 -4 -1 -13 6 -22 8 -10 9 -15 1 -15 -6 0 -11 -4 -11 -10 0 -5 6 -7 13 -4 10 3 13 -5 13 -31 -1 -22 -6 -35 -14 -35 -7 0 -11 4 -7 9 3 5 1 12 -5 16 -5 3 -10 -3 -10 -14 0 -16 6 -21 26 -21 23 0 25 3 19 29 -3 16 -2 32 3 35 14 9 21 -42 8 -59 -6 -8 -29 -16 -51 -18 -30 -3 -28 -4 10 -3 30 1 54 -3 60 -11 6 -8 19 -10 35 -6 l25 7 -30 7 c-29 6 -28 7 9 8 22 0 36 -2 33 -6 -4 -3 1 -12 11 -19 12 -9 20 -9 30 -1 10 8 16 7 22 -2 6 -11 9 -11 14 0 5 11 7 11 12 2 3 -7 18 -13 32 -12 15 0 21 3 15 6 -22 8 -14 21 12 21 14 0 25 -4 25 -9 0 -5 -5 -9 -12 -9 -6 0 -8 -3 -5 -7 9 -9 48 27 41 38 -3 5 1 9 9 9 10 0 13 -8 10 -23 -4 -22 -2 -23 29 -18 l33 5 -30 7 c-19 4 -2 6 48 7 44 0 81 3 85 6 3 3 -16 6 -42 6 -34 0 -46 4 -44 13 3 6 15 13 29 14 l24 2 -25 -8 c-19 -7 -8 -9 40 -9 36 1 53 3 38 5 -30 5 -33 10 -19 31 7 11 9 10 14 -3 4 -9 12 -15 19 -14 7 1 29 1 48 0 27 -1 31 -4 20 -11 -11 -7 2 -10 45 -12 53 -2 49 -3 -30 -8 l-90 -6 70 -3 c74 -3 68 -17 -10 -22 -22 -2 1 -5 50 -8 54 -4 93 -2 97 4 10 14 19 1 21 -31 1 -20 -2 -28 -12 -26 -15 3 -31 -15 -31 -36 0 -7 5 -10 11 -6 7 4 9 -1 5 -15 -16 -56 -17 -66 -7 -51 11 16 27 8 16 -9 -11 -19 -37 -12 -43 12 -5 18 -8 14 -17 -23 -8 -32 -8 -47 -1 -52 7 -5 4 -8 -6 -8 -25 0 -22 -17 3 -23 12 -3 18 -10 14 -17 -4 -6 -14 -9 -22 -6 -11 5 -13 2 -9 -9 4 -11 2 -14 -7 -8 -21 13 -36 12 -30 -4 5 -12 7 -12 14 -1 6 9 9 9 9 1 0 -7 -9 -17 -21 -23 -11 -7 -18 -18 -15 -25 7 -19 -14 -31 -24 -15 -6 9 -11 8 -19 -6 -10 -18 -12 -18 -22 -1 -5 9 -15 15 -20 11 -6 -4 -6 -11 2 -20 8 -10 8 -14 0 -14 -11 0 -19 3 -78 32 -30 15 -33 15 -49 -3 -20 -22 -37 -24 -56 -6 -8 6 -24 18 -37 25 -21 12 -23 12 -18 -3 4 -9 3 -14 -2 -10 -5 3 -21 1 -35 -5 -17 -6 -35 -6 -53 1 -16 6 -106 11 -203 11 -118 0 -178 4 -183 12 -6 8 -10 8 -14 -1 -2 -7 -11 -13 -19 -13 -8 0 -14 -7 -14 -15 0 -14 11 -19 38 -16 6 1 12 -3 12 -9 0 -7 8 -9 20 -5 12 4 20 2 20 -5 0 -19 -27 -22 -64 -6 -20 8 -43 13 -51 10 -8 -4 -15 -1 -15 5 0 6 5 11 11 11 6 0 9 6 7 13 -6 17 -47 17 -57 -1 -11 -19 -71 -25 -71 -7 0 8 -8 16 -17 19 -29 9 -103 3 -103 -9 0 -5 -7 -2 -15 9 -13 18 -41 14 -30 -5 4 -5 -1 -12 -9 -15 -9 -3 -14 -10 -11 -14 6 -9 -21 -40 -35 -40 -5 0 -12 5 -15 10 -3 6 -21 10 -40 10 -29 0 -33 3 -28 23 9 36 23 49 39 36 11 -9 13 -5 11 19 -2 25 -5 28 -19 21 -31 -16 -29 -9 5 25 26 26 33 40 30 59 -3 14 0 28 6 31 6 4 11 16 11 26 0 10 5 20 12 22 9 3 9 6 0 12 -8 5 -17 -4 -26 -25 -7 -17 -16 -27 -20 -21 -3 6 -2 13 4 17 15 9 12 35 -4 35 -9 0 -16 -13 -19 -32 l-4 -33 -1 32 c-1 21 -8 33 -19 36 -14 4 -12 5 5 6 12 0 22 6 22 12 0 6 9 9 19 6 12 -3 22 1 25 9 3 8 1 14 -5 14 -6 0 -9 11 -7 25 5 44 23 26 21 -22 -1 -45 13 -49 22 -5 2 11 8 29 14 40 14 27 -14 69 -35 51 -12 -10 -16 -8 -21 9 -6 25 -23 30 -23 7 0 -8 -7 -15 -15 -15 -9 0 -12 6 -9 15 4 9 0 15 -10 15 -9 0 -16 5 -16 12 0 6 -3 9 -6 6 -3 -4 -1 -15 5 -27 8 -14 8 -22 0 -27 -6 -3 -9 -15 -6 -25 3 -11 1 -19 -4 -19 -5 0 -9 7 -9 15 0 8 -5 15 -11 15 -6 0 -8 -7 -5 -16 3 -9 6 -20 6 -26 0 -6 7 -8 15 -4 8 3 15 1 15 -3 0 -11 -29 -23 -40 -16 -5 3 -12 -4 -15 -16 -4 -12 -12 -18 -21 -15 -8 3 -14 1 -14 -5 0 -5 7 -12 15 -15 22 -9 19 -37 -2 -32 -15 4 -18 -2 -18 -31 0 -20 5 -42 9 -50 7 -10 6 -12 -4 -6 -10 6 -12 4 -7 -9 4 -10 1 -26 -6 -37 -12 -16 -13 -14 -11 24 2 23 6 53 9 67 5 22 4 22 -6 -3 -6 -15 -15 -25 -20 -22 -12 8 -22 -40 -15 -71 4 -16 3 -23 -4 -19 -5 3 -17 2 -26 -3 -11 -6 -13 -11 -5 -16 6 -4 11 -4 11 0 0 3 7 1 15 -6 13 -11 13 -14 0 -27 -17 -17 -20 -33 -5 -33 6 0 9 -3 9 -7 -1 -5 0 -11 1 -15 4 -13 7 -27 9 -38 0 -5 5 -10 11 -10 5 0 7 7 4 15 -4 8 -2 15 3 15 6 0 7 18 3 45 -6 38 -5 43 9 36 10 -6 15 -26 17 -60 2 -57 14 -84 14 -32 0 20 4 30 11 25 6 -3 8 -17 5 -30 -6 -21 -3 -24 24 -24 23 0 31 5 36 26 l6 25 20 -20 c23 -25 58 -28 58 -4 0 9 3 14 6 11 10 -11 12 -43 3 -54 -6 -7 -3 -23 6 -40 8 -16 15 -37 15 -46 0 -10 7 -18 15 -18 8 0 15 -7 15 -15 0 -9 6 -12 16 -8 16 6 16 7 0 18 -9 7 -16 16 -16 20 0 5 -8 17 -17 27 -15 17 -15 20 -3 28 9 6 19 5 24 0 13 -13 46 -13 46 0 0 5 -8 14 -17 19 -16 9 -16 10 5 11 12 0 22 5 22 10 0 12 2 12 -37 1 -20 -6 -35 -6 -38 0 -4 5 7 9 23 9 18 0 32 6 36 16 5 14 9 14 22 3 14 -11 18 -10 29 4 7 10 16 14 19 9 3 -5 -3 -17 -14 -27 -17 -16 -20 -45 -5 -63 1 -1 23 2 50 7 42 8 48 7 52 -10 3 -10 17 -20 32 -22 14 -3 5 -3 -21 -2 -27 1 -49 -3 -51 -9 -3 -8 -11 -7 -27 2 -22 13 -22 13 -17 -14 6 -31 -1 -56 -13 -49 -5 3 -6 -4 -3 -15 3 -11 0 -20 -6 -20 -16 0 -13 -21 5 -34 13 -10 8 -12 -26 -14 -35 -2 -43 1 -47 18 -6 22 -37 34 -74 28 -30 -4 -37 -28 -9 -28 18 0 20 -3 11 -14 -10 -12 -9 -14 6 -10 28 8 73 -13 73 -33 0 -15 -2 -16 -10 -3 -12 19 -46 0 -42 -24 2 -9 -4 -16 -13 -16 -9 0 -13 5 -10 10 8 13 -13 40 -31 40 -8 0 -14 -10 -14 -25 0 -16 6 -25 15 -25 8 0 15 -7 15 -15 0 -19 -2 -19 -30 5 -13 11 -32 19 -44 19 -17 -1 -18 -2 -3 -6 9 -2 17 -9 17 -14 0 -6 -8 -9 -17 -7 -10 1 -24 -1 -31 -6 -10 -6 -13 -3 -10 10 1 11 -1 20 -5 22 -18 6 -27 0 -27 -17 0 -11 5 -23 10 -26 6 -3 10 -15 10 -26 0 -10 -4 -19 -10 -19 -5 0 -10 5 -10 11 0 6 -7 3 -16 -5 -21 -21 -32 -13 -26 19 5 28 -4 31 -30 11 -19 -14 -24 -36 -9 -36 5 0 8 -8 7 -17 -1 -14 5 -17 26 -15 14 1 30 -3 34 -9 10 -16 -17 -29 -37 -19 -20 11 -48 -13 -29 -25 16 -10 12 -38 -5 -31 -8 3 -15 0 -15 -7 0 -16 20 -46 20 -30 0 12 43 12 48 0 7 -20 -1 -25 -35 -20 -35 6 -73 33 -73 53 0 6 -4 10 -10 10 -14 0 -13 -7 6 -35 15 -23 15 -25 -1 -25 -9 0 -19 9 -22 20 -6 21 -28 26 -53 10 -12 -8 -12 -10 3 -16 9 -3 17 -16 17 -28 1 -20 1 -20 14 -3 9 12 16 14 21 8 3 -6 17 -8 31 -5 19 5 26 1 33 -17 7 -18 10 -19 10 -6 1 9 6 17 12 17 6 0 8 -9 4 -21 -7 -20 -5 -21 57 -14 71 8 77 10 60 27 -10 10 -17 10 -31 1 -17 -11 -19 -9 -18 25 0 20 4 42 9 49 5 7 5 14 -2 18 -5 3 -10 -1 -10 -9 0 -9 -4 -16 -10 -16 -14 0 -12 11 5 34 11 15 22 17 52 13 27 -5 33 -3 23 3 -13 9 -11 13 10 30 24 19 24 21 -2 24 -7 0 -14 12 -16 26 -2 20 -1 22 7 10 7 -10 11 -11 11 -2 0 6 5 12 10 12 6 0 10 -7 10 -15 0 -21 12 -19 33 5 20 24 37 26 37 5 0 -8 7 -15 15 -15 8 0 20 -9 27 -20 14 -22 38 -26 56 -8 8 8 15 8 26 -1 7 -6 18 -11 22 -10 5 1 19 1 32 0 30 -1 31 -41 1 -41 -11 0 -18 4 -14 9 3 5 1 12 -5 16 -5 3 -10 -1 -10 -9 0 -9 -4 -16 -10 -16 -5 0 -10 -7 -10 -16 0 -10 -6 -14 -14 -11 -17 7 -33 -11 -33 -35 0 -14 9 -18 34 -18 25 0 33 -4 32 -17 0 -11 -3 -13 -6 -5 -6 14 -33 16 -33 2 0 -5 -9 -10 -20 -10 -11 0 -20 -4 -20 -10 0 -5 9 -10 20 -10 11 0 20 -4 20 -10 0 -5 7 -10 15 -10 8 0 15 4 15 9 0 9 27 22 40 20 3 0 17 4 31 10 18 6 30 6 37 -1 8 -8 13 -7 18 5 6 18 34 24 34 8 0 -5 3 -16 6 -24 4 -11 -2 -16 -18 -19 -13 -2 -29 -15 -38 -33 -14 -29 -15 -29 -18 -6 -4 22 -6 21 -43 -20 -32 -35 -37 -45 -23 -48 14 -2 15 -5 3 -13 -11 -7 -11 -11 -1 -15 20 -8 3 -23 -26 -23 -34 0 -57 14 -48 29 4 6 1 11 -8 11 -16 0 -32 -58 -23 -82 3 -7 6 -3 6 10 1 16 7 22 24 21 12 0 16 -3 9 -6 -6 -2 -10 -8 -7 -13 3 -5 19 -2 35 6 16 9 34 13 39 10 5 -4 12 -2 16 4 3 5 15 10 26 10 10 0 19 5 19 11 0 7 14 9 38 5 20 -3 38 -5 40 -6 2 0 0 -5 -3 -11 -4 -6 -13 -8 -21 -5 -7 3 -16 1 -20 -5 -3 -5 -14 -7 -25 -4 -10 4 -27 1 -36 -5 -15 -10 -14 -11 9 -7 18 3 29 -1 33 -12 6 -14 8 -14 17 3 8 15 12 16 19 5 8 -12 11 -12 19 1 7 12 11 8 16 -18 7 -36 27 -38 32 -4 2 13 -3 25 -12 28 -11 4 -16 19 -16 44 0 34 3 38 32 44 19 4 36 2 42 -5 8 -9 8 -10 -1 -5 -10 5 -13 -4 -13 -33 0 -23 -4 -41 -8 -41 -4 0 -8 -19 -9 -41 -2 -38 -1 -40 12 -23 8 11 11 30 8 44 -5 21 -3 23 8 12 16 -15 29 -16 29 -2 0 6 -7 10 -15 10 -24 0 -17 15 13 30 15 8 35 21 45 29 14 12 17 12 17 0 1 -10 4 -9 14 4 22 28 28 20 23 -33 -4 -39 -2 -50 9 -50 8 0 14 -9 14 -19 0 -11 5 -23 12 -27 7 -4 8 -3 4 5 -4 6 0 14 8 17 22 8 20 24 -2 24 -24 0 -32 8 -25 27 5 12 7 12 14 2 4 -7 24 -14 43 -16 29 -1 34 1 30 15 -3 9 2 5 10 -10 9 -15 22 -26 29 -24 6 1 9 1 5 -1 -11 -6 -10 -33 1 -33 5 0 15 13 22 28 12 27 15 28 41 18 23 -9 31 -8 38 4 16 25 11 32 -17 26 -25 -6 -26 -5 -10 7 22 18 22 27 -3 27 -10 0 -23 -7 -28 -16 -7 -13 -11 -14 -17 -3 -6 8 -1 18 13 27 12 8 22 21 22 29 0 8 5 11 10 8 6 -4 8 -10 6 -14 -3 -3 8 -21 24 -39 15 -18 27 -40 25 -50 -1 -9 0 -11 2 -5 3 7 9 13 14 13 5 0 9 16 9 36 0 32 2 35 23 28 12 -4 25 -11 28 -16 11 -17 54 -5 53 15 -1 9 4 17 12 17 8 0 14 -7 14 -15 0 -8 5 -15 10 -15 6 0 10 -7 10 -15 0 -8 7 -15 15 -15 18 0 19 4 3 31 -11 18 -10 23 11 40 13 11 27 16 30 12 3 -4 15 -8 26 -8 12 0 19 -6 17 -14 -3 -12 0 -12 12 -1 21 16 20 36 0 44 -9 4 -14 13 -10 21 3 8 1 15 -4 15 -6 0 -10 18 -10 40 0 22 5 40 10 40 6 0 10 -18 10 -39 0 -23 7 -46 16 -55 20 -21 41 -21 24 -1 -9 10 -9 15 -1 15 6 0 11 5 11 11 0 6 -7 8 -15 5 -22 -8 -31 22 -15 47 9 14 9 22 2 25 -6 2 -8 9 -6 17 4 10 -7 15 -43 17 -45 3 -48 5 -45 28 5 30 20 50 38 50 20 0 17 -18 -3 -24 -10 -2 0 -2 22 1 22 3 42 8 45 10 9 8 -25 23 -52 23 -16 0 -28 5 -28 10 0 6 9 10 19 10 11 0 28 3 38 6 13 4 14 3 5 -4 -11 -7 -9 -10 7 -15 16 -4 21 -13 21 -42 0 -20 -4 -34 -9 -31 -5 4 -7 -3 -4 -14 5 -19 6 -20 20 -3 13 16 14 15 10 -15 -2 -17 0 -32 5 -32 4 0 8 5 8 10 0 16 27 12 34 -5 4 -11 -1 -15 -19 -15 -32 0 -32 -16 0 -22 25 -5 30 2 26 44 -1 9 3 19 9 23 5 3 10 15 10 26 0 11 7 19 16 19 8 0 13 -4 10 -9 -7 -11 22 -23 35 -15 5 3 12 -2 15 -10 3 -9 16 -16 28 -16 19 1 19 2 5 13 -24 18 -30 50 -13 72 13 17 16 18 24 5 7 -11 5 -16 -5 -18 -21 -5 -19 -22 3 -22 23 1 46 19 65 55 l16 30 1 -27 c0 -16 -9 -34 -22 -45 -13 -10 -24 -29 -26 -41 -3 -20 0 -23 16 -18 24 8 34 -4 22 -24 -7 -11 -12 -11 -23 -2 -7 7 -16 9 -20 6 -11 -12 6 -36 34 -48 27 -11 28 -14 15 -32 -14 -18 -16 -18 -28 -2 -10 14 -20 15 -48 9 -19 -5 -29 -9 -22 -10 7 -1 11 -4 9 -9 -3 -4 22 -8 54 -10 34 -2 59 1 59 7 0 5 9 13 20 16 11 3 20 10 20 15 0 4 -9 6 -20 3 -14 -4 -20 0 -20 11 0 9 8 16 19 16 26 0 36 17 21 35 -9 11 -7 16 8 24 16 9 21 7 25 -9 5 -21 31 -27 42 -10 3 6 -4 10 -16 10 -18 0 -21 5 -17 29 3 21 1 28 -9 24 -7 -3 -13 -9 -13 -13 0 -4 -11 -5 -25 -2 -15 2 -25 0 -25 -7 0 -6 -4 -11 -10 -11 -18 0 -11 30 8 31 10 0 12 3 5 6 -7 2 -13 16 -13 30 l0 24 26 -20 c22 -18 28 -18 40 -6 8 7 14 18 14 24 0 16 35 22 63 12 27 -10 70 10 54 25 -4 5 -11 3 -15 -3 -7 -11 -102 -14 -102 -2 0 3 5 10 11 16 7 7 6 12 -5 16 -10 4 -16 1 -16 -8 0 -8 -4 -15 -10 -15 -5 0 -10 7 -10 15 0 8 -4 15 -10 15 -5 0 -10 6 -10 14 0 26 -24 24 -48 -3 -20 -22 -23 -23 -19 -6 2 12 -5 28 -18 39 l-22 19 23 24 c13 13 24 30 24 38 0 8 5 15 11 15 7 0 8 -11 4 -30 -4 -19 -2 -36 5 -45 20 -24 30 -17 20 11 -14 36 -13 41 13 49 l22 8 -22 4 c-35 7 -27 20 13 21 61 2 62 18 1 27 -26 5 -37 3 -37 -6 0 -10 -3 -10 -11 -2 -6 6 -18 9 -27 6 -10 -4 -13 -2 -8 5 4 7 3 12 -3 12 -5 0 -12 -9 -16 -19 -3 -11 -12 -18 -20 -15 -7 3 -16 1 -20 -5 -15 -26 -35 -11 -34 27 1 20 3 29 6 20 2 -10 13 -18 23 -18 14 0 18 5 13 17 -5 12 -2 15 9 10 9 -3 25 3 38 15 24 22 40 17 20 -7 -17 -21 1 -20 47 2 28 13 39 14 54 5 21 -14 26 -3 7 16 -9 9 -8 16 5 29 14 14 21 15 36 6 15 -10 22 -9 31 1 14 18 53 8 46 -11 -4 -10 0 -13 12 -11 10 2 18 14 20 32 3 25 1 28 -17 23 -14 -3 -21 0 -21 10 0 10 6 13 16 9 9 -4 23 -1 31 5 18 15 29 4 14 -15 -10 -11 -8 -17 9 -29 12 -8 30 -13 41 -10 21 6 27 -13 7 -20 -7 -2 -10 -8 -6 -12 4 -4 16 0 28 8 15 11 18 16 8 20 -7 3 2 6 20 6 36 1 44 18 10 24 -23 4 -23 4 2 15 24 10 24 11 3 11 -13 1 -23 6 -23 12 0 9 -24 10 -85 5 l-85 -6 0 24 c0 33 16 42 24 12 5 -21 9 -23 58 -18 29 3 55 9 56 14 2 5 19 6 38 2 22 -4 34 -2 34 5 0 6 -17 12 -37 12 l-38 2 38 10 c35 10 37 12 37 53 0 24 -5 44 -12 47 -10 4 -10 6 0 6 10 1 12 49 12 221 l-1 220 -37 1 -37 1 37 10 38 10 -1 106 c-1 127 -4 142 -30 142 -11 0 -18 4 -15 9 3 5 15 7 26 4 18 -5 20 0 20 56 l0 61 -35 0 c-31 0 -35 -3 -35 -27 l-1 -28 -14 25 c-8 14 -14 28 -15 31 0 9 71 28 86 22 22 -8 19 64 -4 76 -22 12 -52 -3 -53 -27 0 -10 -3 -12 -6 -4 -12 30 -65 -10 -57 -44 7 -26 -9 -38 -51 -40 -44 -3 -44 -2 -42 -23 1 -11 10 -22 20 -25 11 -3 16 -9 12 -16 -5 -8 -15 -6 -33 6 -15 10 -27 13 -29 7 -10 -30 -28 -40 -50 -28 -15 8 -19 15 -12 26 8 12 9 12 9 0 0 -11 4 -9 14 5 8 10 22 19 32 19 30 0 29 33 0 46 -29 13 -33 31 -12 48 17 15 44 5 51 -20 7 -22 21 -25 29 -6 5 10 7 10 12 0 18 -39 49 32 33 74 -10 27 -10 27 10 8 12 -10 21 -13 21 -7 0 16 37 15 43 0 3 -7 6 -1 6 15 1 30 12 35 31 12 25 -30 40 -17 40 34 0 42 -3 49 -22 54 -14 4 -26 1 -31 -8 -10 -18 -28 -20 -25 -2 2 7 -9 12 -29 12 -18 1 -34 3 -37 5 -2 3 14 23 37 45 35 34 40 37 34 17 -3 -13 -3 -21 0 -18 3 3 12 -2 19 -12 12 -16 13 -16 19 1 4 9 13 17 20 17 11 0 11 6 2 30 -6 17 -15 30 -19 30 -4 0 -8 -13 -8 -30 0 -16 -4 -30 -10 -30 -5 0 -10 16 -10 35 0 31 -2 34 -22 26 -13 -5 -23 -16 -23 -26 0 -10 -8 -19 -18 -21 -9 -1 -17 3 -17 10 0 19 -47 38 -56 24 -4 -7 -2 -14 4 -16 7 -2 12 -10 12 -18 0 -8 5 -14 11 -14 6 0 9 -10 7 -22 -2 -13 -10 -23 -18 -23 -10 0 -14 8 -13 23 2 13 -3 22 -11 22 -9 0 -12 -8 -8 -25 3 -18 0 -25 -12 -25 -9 0 -16 -8 -16 -17 0 -12 3 -14 8 -6 5 7 13 9 21 4 10 -7 8 -11 -10 -16 -27 -9 -35 -7 -31 7 1 5 -2 7 -8 3 -6 -3 -7 -12 -3 -18 16 -25 11 -88 -8 -101 -11 -7 -16 -16 -11 -21 4 -4 -6 -5 -22 -2 -44 8 -62 -2 -36 -20 23 -16 18 -33 -9 -33 -13 0 -18 8 -18 26 0 14 -6 31 -12 37 -8 8 -11 7 -11 -6 0 -9 -7 -17 -15 -17 -8 0 -12 -6 -9 -13 3 -8 -2 -20 -11 -27 -8 -7 -15 -21 -15 -31 0 -24 -6 -24 -30 -1 -25 23 -33 67 -14 83 11 9 14 7 14 -14 0 -28 29 -47 31 -19 1 9 1 23 0 30 -1 6 8 12 21 12 19 0 20 2 8 10 -8 5 -25 10 -37 10 -13 0 -23 4 -23 9 0 5 -9 7 -20 4 -15 -4 -20 0 -20 14 0 12 -7 19 -19 19 -11 0 -17 -5 -14 -13 3 -7 0 -13 -6 -13 -6 0 -11 4 -11 10 0 5 -8 7 -17 3 -13 -4 -12 -1 5 14 18 17 20 22 7 27 -8 3 -15 1 -15 -4 0 -20 -20 -9 -35 20 -9 17 -23 30 -31 30 -10 0 -14 6 -10 15 3 8 1 26 -4 40 -6 16 -6 25 0 25 16 0 12 20 -10 47 l-20 26 -1 -24z m-389 -1706 c0 -20 -20 -15 -21 5 -1 15 -2 15 -6 -1 -3 -13 -11 -17 -24 -14 -10 3 -21 1 -24 -3 -9 -14 14 -60 30 -60 8 0 15 -4 15 -10 0 -5 5 -10 11 -10 6 0 9 6 6 14 -3 8 1 17 9 20 9 3 14 -1 14 -13 0 -11 6 -22 13 -24 6 -3 0 -6 -15 -6 -23 -1 -28 -6 -29 -28 0 -16 -3 -22 -6 -15 -4 10 -9 9 -19 -5 -12 -16 -16 -16 -27 -3 -16 19 -53 40 -71 40 -9 0 -15 15 -18 45 -3 44 -2 45 25 45 22 0 28 4 23 15 -3 10 1 15 12 15 24 0 72 23 72 34 0 14 29 -27 30 -41z"/>
<path d="M5351 2207 c-15 -39 -40 -58 -60 -47 -15 8 -17 6 -14 -14 3 -13 0 -27 -6 -30 -6 -4 -11 -15 -11 -24 0 -15 2 -15 10 -2 8 12 10 10 10 -8 0 -13 4 -20 10 -17 6 4 8 11 5 16 -11 16 5 9 26 -12 17 -17 20 -26 11 -39 -15 -25 -2 -33 20 -14 17 16 17 15 14 -30 -3 -41 -2 -44 10 -28 16 23 15 82 -1 82 -14 0 -29 29 -20 38 3 3 5 1 5 -4 0 -10 35 50 46 79 9 23 35 22 41 -2 5 -18 6 -18 24 -3 21 18 26 52 8 52 -6 0 -9 -9 -6 -20 6 -24 -18 -28 -27 -4 -3 8 -10 13 -15 10 -11 -7 -71 13 -71 25 0 4 6 6 14 3 8 -3 17 -1 21 5 3 7 -2 11 -15 11 -12 0 -24 -9 -29 -23z"/>
<path d="M5276 2004 c-3 -9 -6 -27 -6 -40 0 -14 -4 -22 -10 -19 -5 3 -10 -3 -10 -14 0 -11 8 -22 18 -24 14 -4 13 -5 -3 -6 -12 0 -26 -6 -33 -13 -9 -9 -12 -8 -12 5 0 9 -5 17 -11 17 -6 0 -8 -7 -5 -16 4 -9 2 -13 -5 -8 -7 4 -10 1 -7 -7 3 -8 12 -13 21 -11 23 4 57 -32 46 -49 -4 -7 -6 -16 -3 -20 2 -4 -10 -12 -26 -18 -27 -9 -30 -8 -30 10 0 11 -5 17 -10 14 -6 -4 -8 -16 -5 -28 5 -19 4 -19 -5 -5 -7 12 -7 24 2 43 7 15 14 21 18 14 5 -7 9 -6 13 4 3 9 -1 18 -8 21 -9 3 -20 -7 -30 -29 -13 -27 -14 -38 -5 -56 10 -18 10 -24 -3 -34 -16 -11 -30 -53 -31 -90 -1 -11 -6 -19 -13 -18 -7 2 -10 -4 -7 -12 3 -7 15 -16 27 -18 12 -2 7 -3 -10 -1 -37 3 -36 4 -23 -30 6 -16 6 -27 0 -31 -15 -9 -12 -51 4 -64 17 -14 88 -11 93 4 2 6 -16 9 -44 8 l-48 -3 45 13 c32 9 49 10 59 3 12 -9 13 -7 8 7 -4 10 -7 21 -7 24 0 3 -7 0 -15 -7 -22 -19 -55 -3 -53 26 1 13 6 24 11 24 5 0 7 -7 3 -15 -3 -8 -1 -15 5 -15 6 0 7 -4 4 -10 -10 -16 5 -12 22 6 13 12 13 18 4 24 -10 5 -8 9 4 14 23 9 25 8 25 -9 0 -23 14 -18 27 11 11 23 10 24 -9 18 -14 -4 -18 -3 -13 6 4 6 17 9 30 6 20 -5 25 0 37 39 9 25 12 45 7 45 -4 0 -10 -8 -12 -17 -3 -10 -5 -1 -6 20 -1 34 -3 38 -21 32 -21 -7 -28 13 -11 30 5 6 11 19 14 30 4 15 5 14 6 -7 1 -31 11 -40 31 -28 12 7 12 10 -3 16 -24 9 -21 22 5 26 33 5 34 68 1 68 -12 0 -14 7 -9 30 5 25 2 30 -14 30 -21 0 -27 15 -10 25 6 4 8 11 5 16 -6 9 21 13 58 10 9 -1 17 3 17 8 0 6 -18 11 -40 11 -31 0 -38 3 -34 15 4 8 4 15 1 15 -3 0 -8 -7 -11 -16z"/>
<path d="M4960 861 c0 -5 6 -11 12 -13 9 -3 8 -9 -4 -21 -9 -9 -18 -13 -20 -7 -2 5 -19 11 -38 12 -32 3 -35 0 -38 -24 -5 -39 -32 -37 -32 2 0 21 -5 30 -16 30 -14 0 -15 -7 -11 -37 6 -36 20 -53 45 -53 6 0 12 5 12 11 0 5 5 7 11 3 8 -4 9 1 4 16 l-7 23 22 -21 c13 -12 27 -19 32 -16 5 3 1 12 -9 20 -16 12 -15 13 16 14 28 0 31 -2 22 -14 -16 -19 4 -32 24 -16 8 6 23 9 35 5 12 -4 20 -2 20 5 0 6 4 9 10 5 5 -3 7 -12 4 -19 -3 -9 5 -13 26 -14 24 0 30 4 30 19 0 11 5 17 10 14 6 -3 10 -1 10 4 0 6 -4 11 -8 11 -5 0 -8 10 -8 22 1 19 -4 23 -34 23 -30 0 -35 -3 -34 -22 0 -20 -4 -23 -35 -22 -29 2 -31 3 -10 6 21 3 26 9 22 24 -3 12 0 19 8 20 21 1 -23 17 -48 18 -13 1 -23 -3 -23 -8z"/>
</g>
</svg>
